<mxfile host="app.diagrams.net" modified="2023-01-29T17:40:07.116Z" agent="5.0 (Windows NT 10.0; Win64; x64) AppleWebKit/537.36 (KHTML, like Gecko) Chrome/109.0.0.0 Safari/537.36" etag="srYcVXJvpW61ydWWCwo1" version="20.8.13" type="github">
  <diagram name="Страница 1" id="45is0lbc7pC13glZyjoS">
    <mxGraphModel dx="880" dy="427" grid="1" gridSize="10" guides="1" tooltips="1" connect="1" arrows="1" fold="1" page="1" pageScale="1" pageWidth="827" pageHeight="1169" math="0" shadow="0">
      <root>
        <mxCell id="0" />
        <mxCell id="1" parent="0" />
        <mxCell id="UR6TrBg4EhxfTrJI5W_n-2" value="" style="shape=image;verticalLabelPosition=bottom;labelBackgroundColor=default;verticalAlign=top;aspect=fixed;imageAspect=0;image=data:image/jpeg,/9j/4AAQSkZJRgABAQAAAQABAAD/4gHYSUNDX1BST0ZJTEUAAQEAAAHIAAAAAAQwAABtbnRyUkdCIFhZWiAAAAAAAAAAAAAAAABhY3NwAAAAAAAAAAAAAAAAAAAAAAAAAAAAAAAAAAAAAQAA9tYAAQAAAADTLQAAAAAAAAAAAAAAAAAAAAAAAAAAAAAAAAAAAAAAAAAAAAAAAAAAAAAAAAAAAAAAAAAAAAlkZXNjAAAA8AAAACRyWFlaAAABFAAAABRnWFlaAAABKAAAABRiWFlaAAABPAAAABR3dHB0AAABUAAAABRyVFJDAAABZAAAAChnVFJDAAABZAAAAChiVFJDAAABZAAAAChjcHJ0AAABjAAAADxtbHVjAAAAAAAAAAEAAAAMZW5VUwAAAAgAAAAcAHMAUgBHAEJYWVogAAAAAAAAb6IAADj1AAADkFhZWiAAAAAAAABimQAAt4UAABjaWFlaIAAAAAAAACSgAAAPhAAAts9YWVogAAAAAAAA9tYAAQAAAADTLXBhcmEAAAAAAAQAAAACZmYAAPKnAAANWQAAE9AAAApbAAAAAAAAAABtbHVjAAAAAAAAAAEAAAAMZW5VUwAAACAAAAAcAEcAbwBvAGcAbABlACAASQBuAGMALgAgADIAMAAxADb/2wBDAAMCAgICAgMCAgIDAwMDBAYEBAQEBAgGBgUGCQgKCgkICQkKDA8MCgsOCwkJDRENDg8QEBEQCgwSExIQEw8QEBD/2wBDAQMDAwQDBAgEBAgQCwkLEBAQEBAQEBAQEBAQEBAQEBAQEBAQEBAQEBAQEBAQEBAQEBAQEBAQEBAQEBAQEBAQEBD/wAARCAN0AksDASIAAhEBAxEB/8QAHQABAQEAAwEBAQEAAAAAAAAAAAcGBAUIAwIBCf/EAGcQAAAGAQIBBQgLCwgFCQUHBQABAgMEBQYHERIIExUhVxQXIjGVltPVFhgyN0FRYXF1drUjRlJUVWeBk8PU4jM4QmJytNHjJDZDgpE0SHODhIahtsQlJpKisQkZJzVjZaREU2aUpf/EABQBAQAAAAAAAAAAAAAAAAAAAAD/xAAUEQEAAAAAAAAAAAAAAAAAAAAA/9oADAMBAAIRAxEAPwD/AFTAAAAAAAAAAAAAAAAAAAAAAAAAAAAAAAAAAAAAAAAE/s9WW5tlKxzTLHZGZW8JxTEtxh4o9XAdIyI0SZyiNJKI+pTTKXnk9XE2RHuOusX7PWS7sMaq50muwamlOQLidFdU1IupjauF6Ew4kyU1HaURoecQZLW4SmkmkkOGqi09NUY9VxaShq4lbXQmyZjRIjKWWWWy8SUISRJSRfERAMIWFarZKXO5lqoqlZV463EYLbCSI/6DkuUl51w/67SY5/IXXv8Ar2v2lcjrvqOdkhn4/ZHczbdJ/wC5LdcSRfIREXxEKKACde1x5PPYNp35rwfRB7XfRFnrqdNKSjc+B2iZOqdL5SciG2oj+XcUUAE5PSe+pPumA6uZbVcPWmHbySvYa1f/AKhzOKUZfIiS384+S9QM9wYttUsNRLrEe7yLF0OyWEF+HIgqI5Ecv+jOShJEZrWkvFSwAcOnuafIauNd0FrDsq6a2TsaXDfS8y8g/EpC0maVF8pGOYJhlOG3WB2MvUbSiE44464qVfYsyZJj3KT63Ho6T2SzP26yWWyXjLgd6zQ61vsdyGmyyigZLj05EytsmESYz6SMuNCi3LcjIjSfwGkyIyMjIyIyMgHYgAAAAAAAAAAAAAAAAAAAAAAAAAAAAAAAAAAAAAAAAAAAAAAAAAAAAAAAAAAAAAAAAAD8rcQ0k1uLShJeM1HsRD5d3wfxxj9YQmuvlNT5DWYdS39TDs6+XmNYiREmMJeZdTu4ey0LI0qLciPYy+Adp3gNB+xPAvNuH6MBtu74P44x+sIO74P44x+sIYnvAaD9ieBebcP0Yd4DQfsTwLzbh+jAbbu+D+OMfrCDu+D+OMfrCGJ7wGg/YngXm3D9GHeA0H7E8C824fowG27vg/jjH6wg7vg/jjH6whie8BoP2J4F5tw/Rh3gNB+xPAvNuH6MBtu74P44x+sIO74P44x+sIYnvAaD9ieBebcP0Yd4DQfsTwLzbh+jAbbu+D+OMfrCDu+D+OMfrCGJ7wGg/YngXm3D9GHeA0H7E8C824fowG27vg/jjH6wg7vg/jjH6whie8BoP2J4F5tw/Rh3gNB+xPAvNuH6MBtu74P44x+sIO74P44x+sIYnvAaD9ieBebcP0Yd4DQfsTwLzbh+jAbbu+D+OMfrCDu+D+OMfrCGJ7wGg/YngXm3D9GHeA0H7E8C824fowG27vg/jjH6wg7vg/jjH6whie8BoP2J4F5tw/Rh3gNB+xPAvNuH6MBtu74P44x+sIO74P44x+sIYnvAaD9ieBebcP0Yd4DQfsTwLzbh+jAbbu+D+OMfrCGQ1dzCVi2mmQ3GOTYxXKYao1UajJaSnPGTMY1J+Euecb3L4tx8O8BoP2J4F5tw/RjK6paA6bNaf3dhgGj+JRsmrI/SlOqvoorMhcyMon2W0LQglJNa2ko3I/6RgKhiGLVWE4vVYjRtrRBqIjcRnjVxLWSEkXGtXjUtR7qUo+tSjMz6zHbjgUF7V5RRVuS0ctMqutojM6G+nxOsOoJaFF8hpUR/pHPABmcv1FxnCJlXXXabl6XcOKbisVVFOtHNkmklOOJiMumy2RrQRuOcKCNRbqIaYTfWXQzG9b49NDyi2lxY1LLOY02xWVco1u7ERKJc2I+5HWRbkTkdTThcRmSyMiMg4zPKL0/brFW1vDymBHTbzqlS/YpavIZONINlT7624xpjsGZbk86aW9uLw/BVtz4GuGG3Gd1+BU0a9lyZrliyc3oGe3BbdhGhLye6VMEyrZS+HiJfDxJMt9+oZHN+SXhWoDsZGSZfkUuBEsJtixXyIlRLZYdkuc4ZtKkwXHWVoWa1JeacQ94ZkpxSSSSd/B0yrayypLKvvbdhVJJspBNkbCkSynOG6627xNGfCS+FSebNCi4SI1KLcjDYgAAAnGniPY3qPn2AMdUBLkLK4LZe5jpsjkIfaT8XFLhSnz/rSVfBsRUcTjBXCvtW9Q8ui9cKKzU4m2svcvPQe6pLy0n8JJXZ8yfxLYWXjIwFHAAAAAAAAAAAAAAAAAAAAAAAAAAAAAAAAAAAAAAAAAAAAAAAAAAAAAAAAAAAAAAAAAAE71k+8b651n7QUQTvWT7xvrnWftBRAAAAAAAAAAAAAAAAAAAAAAAAAAAAAAAAAAAAAASdqV3h7SW1aeDpxbTHJjE7+hjUp5XE60/+BBW4pS0O+5YUtaVcLXAaKs24282h5lxK21pJSVJPclEfiMj+EgcbbebU06hK0LI0qSotyUR+MjL4SE271+QYO4qToxkMephGo1qxe0bU9Tn8JlG4TJyBv8TXEyXWfMGZmYClgJwnVy0ofuOpGmOTUS0dSptXFXeV6z+E0OQ0qfSgvwn47JDsqbWzR7IZHcdNqjismWXu4ibZgpDZ/Etk1EtB/IpJGA2oD5MyY0hon48ht1sy340LJSf+JDoL/UnTrFEG7lOfY5TIT41WFqxHIv0rUQDSAJz39sPs/ueCVmQ5s8o9mzoKtx2K58053m4RfpfIfg6rWDPUm3kFlGwClc91DpnymW76OvwVy1JJmLv4lJZQ6v4UPoPrAcjOc6t5NqvTbTLmpOVvIQc2atvnImPR1luUmT8CnDTubMffidVsZ8LZLcTp8OxKowbGoOK0aXu5IKFFzj7nOPPuLUa3XnV/03XHFLcWr+kpaj+Ef3E8PxrBqdFDilQzXwkrU8pCDNS3XVnut11xRmt1xR9anFmpSj6zMzHcgAAAAAAAAAAAAAAAAAAAAAAAAAAAAAAAAAAAAAAAAAAAAAAAAAAAAAAAAAAAAAAAAAAAnesn3jfXOs/aCiCd6yfeN9c6z9oKIAAAAAAAAAAAAAAAAAAAAAAAAAAAAAAAAAAAD4TZsOthv2NjLZixIrSnn33nCQ202kjNS1KPqSkiIzMz6iIhP2dc6GxbKVjeGZxeQV9bU6HjshMd4vgU0p4m+cQfjJaCNCi2NKjLrAUcBO+/J+arUTyH/GHfk/NVqJ5D/jAUQdfc49QZFHKJkFHX2bBf7OZGQ8j/AILIyGL78n5qtRPIf8Yd+T81WonkP+MBLdScA5L9fqPiBS8J0uis1VjPLIudra9CIqOi33kd17pIkFtwOFzmxeJRfGLljeAac44lqZh+E43VpUkltu1tawwRpMtyNJtpLq2+IeIuU5ybKHlBcorTrWFel+cR6ysc5rMoa6Q0qtYrHhxkkklGSzNW7S+Iy+5mWx7pIj9eJ1iShJIRpTqGlKS2IiotiIv/AIwFFATvvyfmq1E8h/xh35PzVaieQ/4wFEATvvyfmq1E8h/xj+HrMhJcTmluoiEF1qV0ApWxfHslRqP5iIzAUUB0OIZxi2dwXp+MWndJRHjjS2HWHI8qG8REZtSI7qUusObGk+BxKVbKSe2xkY74AAAAAAAAAAAAAAAAAAAAAAAAAAAAAAAAAAAAAAAAAAAAAAAAAAAAAAAAAAAAAAAATvWT7xvrnWftBRBO9ZPvG+udZ+0FEAAAAAAAAAAAAAAAAAAAAAAAAAAAAAAAAAAE21djNX19p7hVgknam6yJbtlHV1oltRIMmS2ysvhR3Q1HWZH1KJs0mRkoxSRO9Q/fL0r+mrH7Jljg2muCajI87x6XizvFiMJmVAdTLI+l3VttmbCS4PuSicfjt+NW/OpP5AFSASys5RuAP18Jy1Rdx7CRVsWL8eDQWViy064wl7uRuSxGU0/JJCuIo6DN5SfCJvYfqByl9IrKvq7WNZZEmLbpN2Ot/Ebdjm2CUSe6XycikcaMZnsUh4kNHsrZZ8J7BUQGSx3VPDMryu0wuklWblnUE4cg36abHjOE24TbnMSnWksSeBZklXMrXwn1HsM6jlJaSKetGF2WQMrqUuKX3RidsyUvgkFHMoRrjEU5RvKQgkxudNRqTwke5bhTwGPPVnBU4MrUVyymopkK5pSV1UtM4n+c5so/cJtd1d0G4ZIJjmudNRkRJ3MdSxyhNKZEmpis3Vma7hKVIM6CxJELidUylM9ZscNeo3ULbJMs2lGtCkkW5GRBRgExkcpHSWPj72TdJ370JmUcXaNils/IdPm1O861HbjKedjm2haykIQpk0pMyWZdY7K11u06o7lNJaz7eM4uIqaiWrH7E4CkJZU+aEzSY7mN3mkKVzJOc5sR+DuA3gDLW+p2C0L06PcX6Iq62M5MlcbLvC2y2yl5ajUSdj2bUk9iPc99iLfqHR2PKC0orIEKxdvp8hmepPNFCo58txLZsNPm842yypbTCWn2VLecJLaOcSS1JM9gHyymKzQa14VkVagmZGTszsftCQWxSmmo65cda/wlNKZdSgz8SZLpfCKUJxnzrT+o2lD7DiXG3LiwWhaDI0qSdTLMjIy8ZCjgAAAAAAAAAAAAAAAAAAAAAAAAAAAAAAAAAAAAAAAAAAAAAAAAAAAAAAAAAAAAAAACd6yfeN9c6z9oKIJ3rJ9431zrP2gogAAAAAAAAAAAAAAAAAAAAAAAAAAAAAAAAAAneofvl6V/TVj9kyxybPR3FrbLmc0ky7JM5qcucaG3UE06ao7LXNLLg3NsjjMOkW+5ONpPfbdJ5LlG21nQP4leUr/M2Feq9lRXOBK+B5FJNUg+FXgnsZF1H1H8ImOZ59rjGwt9GFZFqhYPzLRLdbay8Q7hlJd5s+ejOobophoipWZc28qESV+ERytiJSwotJyQdLcd1MrNUqg1t2lc0whSXaSlfXIcajFGS6qY7BVObVzaUdTMltG6epJEpZK7y35PlLPp6yjrM2yeoiQqhNDMairiLRbQEmZpYlE6wsyLdS/CYNlzZai49ttsJYas6+4xXllOT4chOLxHYz02Sy3JXa7qqEuLjN1qIKuNs5h8BOFI4+cPm+H4BkqjVPUSbXS6mXqXrKUePKjybC3a0wUm6iJdiGaGY8FdORriqktvJ504jyi4SJTiSPiILFproTeaeZJAyGXrVlWTtxoEyG9X2kCrbjmuS8h9x1o4sVl1J86g1bOOO9Stt+rcdndaFY3bw4bLOQ39bKrWH2oE6G8wT8VxyY3LJ9JLaU2paHWUcJLQps07ktCyMSObnHKqTJXVnTW7L1n0dKRKj0rTjNamPGYcnMfyaiV3Q46SE8RrMjJ/hUXNkOyuM05TSK587igfpapLUva1x5hdvbdzFZMt90HBcr0oakIiKcU2yjurnPCPgcNJEoKsjSOAnBXcOPLcgOa9M6UXkPFFKyOwJ0nSl8JMFF4yWlOyOY5rZJFze3UOme0Ahy5USRYan5zMQpplq8ZkSYakZBzTynmjlf6NxM8K1r2TDOMnhMk7cJJSWDrbLXi0pLXIIWYZ33NS1BuVDcvGYUeTdpXIkI7plRXYTbqZSGUNrSw0UfdXBxteHwDQ49danWujWXvUmSZlMsEOOsYze3uNN1926g2293XIC4bCCNt5TyUccRJKQ2lRpWR8aw65fJJfbtJs2t5Qeole1PKSp9DMWjW464+2lpalrcr1EtXNJJHOqSchW6jceX4JJ5Ejkg4bd5BHy/MMst7m7ZqU1JylVtU2tKO5FRnDbf7kOU22tK3FGxz5sktalEgjGCyDUzlIO49eXUyuzWhN1FfDro1XjqnXY0llTzcx41Iq7F3mnnGt0qKI8XNqZMibJw3C7rHs21/kHTOX8nMWMm6FZNihYxJD1PYvlGPn3pk9cdoo7pSNySnn426UEaY6+MgG9iclXRunmRnMXxxnHK+PO6RVUUkWNBr33+YS0SnWWmiJXW2054+tbaDPci4RxlclTBYj5WONZFkOPWz0RqrsLWuKD3XZVqIzUfuGQt2M4SmjSwlRGkkuIWpZtrbJaiPDRs411VXqqsPtNQMhcsYNghFxkmEN1Z1s1DbKzPmzjMm4hGzxMkpnhcW4lPG+RKUjP1Wp3KKj5lljOQOagLr41S6uNHi4o64llfMs8LrB9CJb4yUpZ8KJVgtRmraL4JoSFO5RWaMaRu6d5bGw7IcjZo7GaTdTQRDlznk9FyUETbZmRqJJHxKPfqSlR9ewl3JR5ceV8oY8yye20rtoVPV2DNbW1NRAXMmRTShSnHJjylpLiXxIJKEtp25tXWY1Gld7qVfPaXydU1Wjls3ldwhh+yirYkPRDqJC2lKJVfXmZlxqTucNky4eE0mZGtXoStw/FKe+tMpqcbrYVxdoZRZTo8VDb8wmuLm+dWkiNfDzi9jVvtuAyffk/NVqJ5D/AIw78n5qtRPIf8YogAJ335PzVaieQ/4w78n5qtRPIf8AGKIACd9+T81WonkP+MO/J+arUTyH/GKIACd9+T81WonkP+MO/J+arUTyH/GKIACd9+T81WonkP8AjDvyfmq1E8h/xiiAAnffk/NVqJ5D/jDvyfmq1E8h/wAYogAJ335PzVaieQ/4w78n5qtRPIf8YogAJ335PzVaieQ/4w78n5qtRPIf8YogAJ335PzVaieQ/wCMO/J+arUTyH/GKIACd9+T81WonkP+MO/J+arUTyH/ABiiAAnffk/NVqJ5D/jDvyfmq1E8h/xiiAAnffk/NVqJ5D/jHNxjViqyTKUYc7jOTUtm9Xv2bCLatOOh5hlxltw0q3MjNKpDXV4/C+QxtxO7b+cLiv1MyD+/VICiAAAAAAAAAAAAAAAAAAAAAAAJ3rJ9431zrP2gognesn3jfXOs/aCiAAAAAAAAAAAAAAAAAAAAAAAAAAAAAAAAAACa6nw4lhqBpjBnxWZMaTbWbLzLyCW24hVRMI0qSfUZGW+5H4y3FJSlKUklJEREWxEXiIhktSMPscrrK6Zj09iFkOOWKLimfkJNTHdKW3GlNPEnr5t1l59lRl4SSdNSdzSQ6ZnVu+iNkxkmi+cQZyOp1EOPHsI6j+FTTzLp8SD+DjShe23EhJ9RBRwE778n5qtRPIf8Yd+T81WonkP+MBRAE778n5qtRPIf8Yd+T81WonkP+MBRAEtm6/1VdYV9VN031Bal2zjjUJpVEe7y0NqcWReH8CEqPr+Ic7vyfmq1E8h/xgKIAnffk/NVqJ5D/jDvyfmq1E8h/wAYCiAJ335PzVaieQ/4x/D1jWZbN6T6iLX/AEU9CpTufxbqcJJfOZkQD+6h++XpWX/7zYn/AP8AKliiCdYxR5flWbtakZ1TFRMVcN6Dj9EuQ2/Ijk8pBvypa2jU1zyiaQhCGlrS2jnD5xRumlFFAAAAAAAAAAAAAAAAAAAAAAAAAAAAAAAAAAAAAAE7tv5wuK/UzIP79UiiCd2384XFfqZkH9+qQFEAAAAAAAAAAAAAAAAAAAAAAATvWT7xvrnWftBRBO9ZPvG+udZ+0FEAAAAAAAAAAAAAAAAAAAAAAAAAAAAAAAAAAAAAAAAAAAAE71B98/S36Vs/syQKIJ3qD75+lv0rZ/ZkgUQAAAAAAAAAAAAAAAAAAAAAAAAAAAAAAAAAAAAAAAAAAAAAAAATu2/nC4r9TMg/v1SKIJ3bfzhcV+pmQf36pAUQAAAAAAAAAAAAAAAAAAAAAABO9ZPvG+udZ+0FEE71k+8b651n7QUQAAAAAH8UpKEmtaiSlJbmZnsREJbRawZplVPFyTGtEb6bUWTZSK+Wq1rme6Yyutp4kLeJSUrRwrIjIj2UW5EAqYCd98HU/sEu/LlZ6cO+Dqf2CXflys9OAogCd98HU/sEu/LlZ6cO+Dqf2CXflys9OAogCd98HU/sEu/LlZ6cO+Dqf2CXflys9OAogCd98HU/sEu/LlZ6cO+Dqf2CXflys9OAogCd98HU/sEu/LlZ6cO+Dqf2CXflys9OAogCd98HU/sEu/LlZ6cO+Dqf2CXflys9OAogCd98HU/sEu/LlZ6cO+Dqf2CXflys9OAogCd98HU/sEu/LlZ6cO+Dqf2CXflys9OAogCd98HU/sEu/LlZ6cO+Dqf2CXflys9OAogCd98HU/sEu/LlZ6cO+Dqf2CXflys9OAogCd98HU/sEu/LlZ6cO+Dqf2CXflys9OAn+s/KA0WwzVfE4WV6l0VVKw6fMkXcaVJJt6K29UvLaVzZ+Eslk4gk8BK3Uokl4XUPQLLzUhlEhhZLbdSS0KLxKSZbkZDxdr7yarTXrXbTTWm80HtW14U+o7WGq2rFFbMNmbkVtX3fYuB/rPcj4kKNPwEPSHfB1P7BLvy5WenAUQBO++Dqf2CXflys9OHfB1P7BLvy5WenAUQBO++Dqf2CXflys9OHfB1P7BLvy5WenAUQBO++Dqf2CXflys9OHfB1P7BLvy5WenAUQBO++Dqf2CXflys9OHfB1P7BLvy5WenAUQBO++Dqf2CXflys9OHfB1P7BLvy5WenAUQBO++Dqf2CXflys9OHfB1P7BLvy5WenAUQBO++Dqf2CXflys9OHfB1P7BLvy5WenAUQBO++Dqf2CXflys9OHfB1P7BLvy5WenAUQBO++Dqf2CXflys9OHfB1P7BLvy5WenAUQBO++Dqf2CXflys9OHfB1P7BLvy5WenAUQBO++Dqf2CXflys9OHfB1P7BLvy5WenAUQBO++Dqf2CXflys9OP4rUPU1CTWvQa6SlJbmZ3lYREX68BRQGb05zJGoeDUucNU8qrau4iZrMaSpCnEtL60KM0GaTJSeFZGR+JRDSAAAAAJ3bfzhcV+pmQf36pFEE7tv5wuK/UzIP79UgKIAAAAAAAAAAAAAAAAAAAAAAAnesn3jfXOs/aCiCd6yfeN9c6z9oKIAAAAJ/rlYTG8AkY1UyFsWmXyWMahOI920qWvm3Xk/K0wbz3zNH4xuK+vh1MCNV10dEeJDZRHYaR7lttCSSlJfIRERCfzv/evXWtgF4cLA6hdo78XSM/jYY/3kRmpm5ePaSg+rct6QAAAAAAJ3qtqfcaeTaGPAx+peh2b6kzra8tX6ytr20mktlyWoshKXVmsibQ7zSFmRpJziNKTCiAJLS5hrRM13yHE5GMYovDIMSA+3KLInu7WW3e6dnUxyr+Fa1qbSlTapBJQSSUlSjM0j9YvqRqxnGMTcgr9MKithzqhyXRSXMp3U5IJXDzclPca+5yP3aFoTIIyI+NCD8AwrACLp1cziLgOAv4viDGUX+U0CrRXTN6iA22TLLLjhvPx4aiNRk6ZEbcZJGrh8BCTNSOsvOU9LLL8UxHDsaxiwmZJDqp6oNtlSq+zOPNV1uxIbcR9UtDCCWt1XE2SeH4tzIL2AnWny8nuck1CmWmc20iIzdKqa2uOPCTHq224zKuNlSY5OrWpTqjPnnHU9SdkpLcj++i8vInsYsoOT5ZYZLMqr+zrU2dgxFakPssyVpb5xMVllnckkRbpbTvt19fWA3wCRaya8StKMmoaaNi7F3EsDbVZqYcsVy4DLjyWkO83GgPsJQZmrZcmRGQZoURKPY9uUjVfOn7a/fiaZQ3cYx2TYwpVmd+SZRuxmOdStMXmNuZWezZq53nErP+TUjwwFTAR6RrJqDVad2ee5HppT1RHGgyqKOeQSZfSHdOxFHcTEgOyG5KTMi5phiSSjUkkLV4XD+MZ5Qki7xGryqwwd+D0lW2bpR+ffS50lCfJk4SW5Edl4jcPc0G40254KiU0gyMgFkAfGO4+qI27MZS08bZKdbbWbhIVt4SSVsRqIj3Ij2Lf4i8QzGHan43nVhNrKSsy2M9ATxOqucQtqhpRcXD9zdmxmkOnv8DalHt1+LrAa0BgNUNQctxCZVUmEYVX5FbW0ebJbbsLlVbGaRGJtSzW6lh9fWlwyTwtq8LhI9kma04mZynJLuaYxjOL6aXV1DuIVdNspbEG0dOAmaW7RJXHgPRD4E+E5z8qNwp608fiAXUBNcN1uq8ztqihhUz7M+a1z01DjpcMZPc/OmaFbfdSJZk2fUjr4vwTId1qpm9vp/iLmQUmMKvJfdDMdLKlyG2GScVwm9IcjsSHW2U+NTiWXCQR8SiSglLSGwAQ6bqfrHbZ3gKMCotPbrGckoZFlJkM5m8ph5SVR+JyO63WuE82hLu7aiUgnecVxE3wpM9bj+oeeZHmU6shacwixmttJdRJt1Xxd1JeabJaXSiczsbKjMkGfPc4lR9Tak+GAogCM1WqWdU+E2Npb40i3yL2Yrx1muK7aVGbU7IS20SZSYTB8yglpM+JlThFxFxOmRcWcznlV2+G4zTvOYhiLWU2DtnFXUW2ZKgR5EuFI5hUSvkdxLcmyHXDRzTXMNmpJmZ8JlwmHokBN6Owy201dtkWWSzYlbUY7WvKx+OiMuGqVJVI5xxTy45SVKTzKUp2cQnbc1IMz6sjE5S1vFxuZlOWacoroj9I1d0bMCyespU5C324/NvMsxeJpfOvNcKWu6FKQvfhJZG2AuwCKYlykXLCsrpucae2uNOzVPtqQ5HnNlxNvxmuNtE+JEkKZ2lcSnFst7c05slRbKOpYdkJ5bitVk/cfchWkVuWlnnOc4ErLdJcWxb9Rl8ADuQHn/Dtdc1sMwzZm8l485RY1GtJCkvUVhSnX9zSlNRzcmvuPNz23Utump2KyRNKbUkyUoySPrinKSy3LcWakwdK2msnfyEsdRWTJ9hXxScVDVKbeU7Oro8pLfCREreHv4zQThbcQXsB5/wAq151AtMPRMwPEaqNOiR4kjIZEu6MiqycmrjKRFT3K53Yvijv/AMoUdJp4DJW57J0Nlrnf1kmwt3MDhu4k07awYFi3dK7tfnQGn1uodiHHJLTKjivJS4l5xXUkzbSR9QV8BCKLlG5TZw8kcudNIdQ/U1Zy4BJvSlJlyO6DZJtf3FsmkcS2d17n1m6W3ChK3N7lVhlWEYpTXj16u1dqpEVq6I4raOkGnVpacWhKU/c1oUsnEJSexkk0nxbkZBugHzkOKZjuupIjNCFKLfxbkQ8+V3KcuK/HYlrllHGemsY+7YT4dbDkrW7MU7DKIlhDfPOG24ia2ZklDrm57JJRp4TD0OAilfyirOPpqzqZmmm1jRQI1iuBbIcansuMEZETL0dmbCiyX21urbaM1sMmk1KURKQk1D6lnOvjur1BjqcGxBijnY70jYMO5U9z8dzn2UuqQSa1ROLb4zSlPOoQ4RmZmgyLcLMAxNRfZRf3eXyKpyIcakeKoroD6yQ29LS0h1x951KFOIIzdSgkkXUSDVsfGXD/AHR7LL/NcCiXuUdHnad1zochUBhbEdao8t1glIbW44pJGTZHsa1bGZ9YDagI5q9qZmmFZ/j9VBt4VFjEqKciwtJuC2t4wayfSk2ly4b7TFcXNmZ87J3R17+JJke1j3lvX6lu4vOknMrrisXaVyubSRxFsLbafZNSSLdCudZWg1bq4jdIz4SQRBrgAAAAAAE/1ysJjeASMaqZC2LTL5LGNQnEe7aVLXzbryflaYN575mj8YoAm87/AN69da2AXhwsDqF2jvxdIz+Nhj/eRGambl49pKD6ty3CgV9fDqYEarro6I8SGyiOw0j3LbaEklKS+QiIiHIAAAAAAE7tv5wuK/UzIP79UiiCd2384XFfqZkH9+qQFEAAAAAAAAAAAAAAAAAAAAAAATvWT7xvrnWftBRBO9ZPvG+udZ+0FEAB/FKShJrWokpSW5mZ7ERD+if65WExvAJGNVMhbFpl8ljGoTiPdtKlr5t15PytMG898zR+MB8NDUqt8bstR30nz2d2r940ai6+4NkswCL5DiMx17eLicX8ZmdHHHr6+HUwI1XXR0R4kNlEdhpHuW20JJKUl8hEREOQAAAAAy2baaYrqEqF7KFXbjMFRqKLDv58GNIIzIzRJYjPNtSmz22Nt9K0GRqIy2UZHqQAZmdp1i1hmcDPnEWjFzXMFFbVDuZkWO80XHwokRmXUsSSSbizTzyF8JqM07GPsvBMb9hh4BGanwabubuRKIFnKiSG2t99kSWXEvoP+slZK+UaAAGLxLR7AsJq6qmooNmqNSMSYtf0heTrByOy+SEuNpckvOL4Nm0ElJqMkEXgknrE+vOTdfP6i1GTYjqdKxzHaxquZ6HiLtm3jbiESSQS2LJqK6laEpSZyoklWxqLiMuEkXUAGKxPDMsxnIMynKymplVeRTukq2KVM63IgPqZQ25zz3dJpkoM2kGSUtsmXhEalbkZfbS/D7/CsdkQMpyKvu7afZzbSXLr6xdfHNch5TnC2wt99SCTxEXW6oz236t9i14AMbl2kWBZ1dx8gyasmyJcdhMbhZtpkZh9tK+cQT7DLqWn+Be60G6lRoUZmk0mZju2MTx+PAtqxmBwxrx59+ejnVnzzjyeFw9zPdO5fAkyIvg2HbgAzmQ6f4tlGJt4VaxJaaphLBMFDsZMOQwbJpNpTUlhxD7a0mlOy0rJXV4+sxnu85Vx5+NV9W5BiYpjc165RWKjPPS3rRa1qJ85jj5/c93nVqQbalKWaT5wiI0qogAP4pKVJNKiIyMtjI/EZDJ4dpFpPp1YTbbT7TDEsYnWSeGbJpqWNCdklxcWzi2kJNZcRmfhGfX1jWgA6yxxultrKJb2ELnZcFiRHjuc4tPA2+SSdLYjIj4iQnrMjMturbrGZLRfAGrimvYMW6rpVDFjwoxVuRWMJl1hjfmW5LLL6W5iUEZkRSEudSlF4jPfcgAydDpVgWM3TOQ0lD3PYR25rTTxynnOFEt8n3y2Wsy8JxJGXV4JeCnhT1DscvxCpzemVQ3Mu6jRluJdNdPeTamRuk+oikQ3WnSL40kvY/hIx3YAMZaaQYJa1+P1i4dpCaxdznKxysvJ1e+3uREpK3ozyHHkL2I1odUtLhkRrJRluNFWY/U0yJ7dZFUwVlKdmyuF1Zmt9zbjWRme6d9i6k7EXwbDsQAYDGNC9OsRKUmqYyGQmZZs3LpWuU2lmXdrS+NDySlyHOA+LYz4diVsRKIyIhjdWeTfaZtMgScB1BewxDJzVzCYdt0OvOSnieccQ9X2cJwlcfEZIdN5ojMjJstj3uIAMPU4HkdPqHIyprLIcmnnUsSsmwZNYtc11+MbnNvplk+SEkZPL4kGwozPYyWnrI+Q/pHp7JqWqN7HiVCYqTpGm+6nyNuGa0L4EqJfESiW22pLhHziTSRkojGwABhWdFNPkVUKmmRbq1YrymJjuW+R2NlISmU0bT6TfkvuOqSaD2JKlGSeo0kkyIxrqipr6GphUdTGKPBr47cWM0SjVzbSEklKdzMzPYiItzMz+McwAGTn6V4HZx1xZlEa2nGLCMskynkGtqavnJKFGlZGZKX4Rb+4MiNHCZEPhjukGAYsiOVVVTFux56LQpM22mTZLktMc46XnXpDq3HVcyfButSuoi+EiMtmACeWmgGktzIiSLDF3HO4iWSGk2ctDLvFIVII3mkukh80PLW42bqVG0pSjb4NzHKd0U02fu7K/fo5Lki1akNPsLtJZw0G+hSH3WYhu8xHecStZLeabQ4rjVuo+I99yADGSNH8AfgWkBumWwm4gPV0lxuS6a+ZdVxK4eJRklXFsolbbkZF8w5MvELa4qKGoyDJUzW615iRZLRDJpVm4yZKa38IyaTziUuKSRHxGkiI0p3I9UADoZeDYtOzCLn0qr476FXP1LEvn3C4Ijy0Lcb4CVwHuptB8Rp4i26jIjMdLK0U0wmmapGLIUs6NGOcaZT6V9wIWS22yUSyMlIUlKku784kyIyURjcAAxtZpLhVZX11Ytq6tWKp6Q/G6byCwtlkt5s23DWuY+6pzwFKSklmokEpXDw7nv8Ax3SLCXTxtSW7xhzE0c1WOx8isWHSa3SZtPrbfJUpozQjdt83EHwl1dQ2YAMszgjLF1kcxq1lN1uUNIObCYcWw43KJsmlSGZDS0uNKU0ltJ8J7kbaVJUk998bZ8nPGI+k15o/hVhOrqfJHVlYnd2NjfLJl5X+kkwqXLNbLiiNSkqJRoS6rnFNuGaiVWwAZDIdK8Qyt+odyArmU3StpbZiJvZzEKQktjLuqI08mPL60kez7ayL4B2ULGnGssn5ZYWPdTr0dEKCylngTDjFspad9zNa1ueEpXUWyG0kkuE1K70AAAAAAAAfxSkoSa1qJKUluZmexEQnOhqVW+N2Wo76T57O7V+8aNRdfcGyWYBF8hxGY69vFxOL+MzP765WExvAJGNVMhbFpl8ljGoTiPdtKlr5t15PytMG898zR+Mbivr4dTAjVddHRHiQ2UR2Gke5bbQkkpSXyEREQDkAAAAAAAJ3bfzhcV+pmQf36pFEE7tv5wuK/UzIP79UgKIAAAAAAAAAAAAAAAAAAAAAAAnesn3jfXOs/aCiCd6yfeN9c6z9oKIACbzv/evXWtgF4cLA6hdo78XSM/jYY/3kRmpm5ePaSg+rct6QIviczVPErfL5szRqytJd9kUub3ZHua9LbkVHDHhkknHkrIu5mGVGkyLZS19W5nuFoATvvg6n9gl35crPTh3wdT+wS78uVnpwFEATvvg6n9gl35crPTh3wdT+wS78uVnpwFEATvvg6n9gl35crPTh3wdT+wS78uVnpwFEATvvg6n9gl35crPTh3wdT+wS78uVnpwFEATvvg6n9gl35crPTh3wdT+wS78uVnpwFEATvvg6n9gl35crPTh3wdT+wS78uVnpwFEATvvg6n9gl35crPTh3wdT+wS78uVnpwFEATvvg6n9gl35crPTh3wdT+wS78uVnpwFEATvvg6n9gl35crPTh3wdT+wS78uVnpwFEATvvg6n9gl35crPTh3wdT+wS78uVnpwFEATvvg6n9gl35crPTh3wdT+wS78uVnpwFEATvvg6n9gl35crPTh3wdT+wS78uVnpwFEASez1lzmot6ejm6E3yZd686xCSVzWmS1tsqdWRmT/g+AhR9fzDtO+Dqf2CXflys9OAogCd98HU/sEu/LlZ6cO+Dqf2CXflys9OAogCd98HU/sEu/LlZ6cO+Dqf2CXflys9OAogCd98HU/sEu/LlZ6cO+Dqf2CXflys9OAogCd98HU/sEu/LlZ6cO+Dqf2CXflys9OAogCd98HU/sEu/LlZ6cO+Dqf2CXflys9OAogCd98HU/sEu/LlZ6cO+Dqf2CXflys9OAogCd98HU/sEu/LlZ6cO+Dqf2CXflys9OAogCd98HU/sEu/LlZ6cO+Dqf2CXflys9OAogCd98HU/sEu/LlZ6cO+Dqf2CXflys9OAogCd98HU/sEu/LlZ6cO+Dqf2CXflys9OAogCd98HU/sEu/LlZ6cO+Dqf2CXflys9OA+c7/3r11rYBeHCwOoXaO/F0jP42GP95EZqZuXj2koPq3LekDC6UY/f1sG8yTL65MC+ym5kWcqKT6HjjMpJLEVnnEbpM0xmGTVw+CS1Obb77nugAAAAAAABO7b+cLiv1MyD+/VIogndt/OFxX6mZB/fqkBRAAAAAAAAAAAAAAAAAAAAAAAE71k+8b651n7QUQTvWT7xvrnWftBRAAAAAAAAAAAAAAAAAAAAAAAAAAAAAAAAAAAAAAAAAAAABO9QffP0t+lbP7MkCiDxnlnLTw655U+DaHwdP8v9mVBlM+vnV7kdlJEy5HcZbloXzhpUybLvdBnuWyEmXj2I/ZgAAAAAAAAAAAAAAAAAAAAAAAAAAAAAAAAAAAAAAAAAAAAAAAAndt/OFxX6mZB/fqkUQTu2/nC4r9TMg/v1SAogAAAAAAAAAAAAAAAAAAAAAACd6yfeN9c6z9oKIJ3rJ9431zrP2gogAAAAAAAAAAAAAAAAAAAAAAAAAAAAAAAAAAAPlJlRoUdyXMkNMMNJNTjrqyShCS8ZmZ9REMDI1506dfXCxWfNzGY2o0KZxiC7ZpSovGlb7RGw0ZH1Hzjidj6vGAoYCceyLW/JP/yDAKbFIyvFJyWx7qlJ+I+44Rm2f6ZST+Db4neoyK98LUDVvJrRCvdwadaaSH8u3c3+lbH8SpCi2/TuGnyvUHBcFaQ7mOXVFNz38iiZLQ048fiIm0GfEszPxEkjMxmO+/Ou/A090wyzIEq9zMlxCp4RfKa5pturT/Waac38Zbl1jQYppjp7g7rknE8Nqa2U9/LS2oye6nz223cfPdxw9vhUozGnAece8TqD3+vbQ+xXAfZd0D7H+iukJXN8xznHz3dvc+/P8P3Li5jh4Or5RR++/OpPA1C0wyzH0p91MiRCuIR/KS4RuOoT/Wdab28Z7F1ijgAz+Kag4LnTS3cOy6oueZ/lkQ5aHXGT8Rk4gj4kGR+MlERkNAMxlemOnucOtycsw2pspTP8jLdjJ7qYPbbdt8tnGz2+FKiMZ/vUZFReFp/q3k1WhPuINwtN3D+Tfun/AErYviTISW36Ngo4CceyLW/G/wD8/wAApsrjJ8cnGrHuWUr4z7jmmTZfolKP4Nvj+kfXnTpp9uFlU+bh0xxRISzk8F2sSpR+JKH3SJh0zPqLm3Fbn1eMBQwHyjSY02O3LhyGn2HUkptxpZKQtJ/CRl1GQ+oAAAAAAAAAAAAAAAAAAAAAAAAAAAAAAAAAAAAAAndt/OFxX6mZB/fqkUQTu2/nC4r9TMg/v1SAogAAAAAAAAAAAAAAAAAAAAAACd6yfeN9c6z9oKIJ3rJ9431zrP2gogAAAAAAAAAAAAAAAAAAAAAADi2VpW00Jyxt7GNBiMlxOPyXktNoL4zUoyIv0gOUAnKteMIsFGzg8e6zd4j2I8brly4xn8Xdh8MRJ/2ni/8AAx/OlNeMkPatxjGcLiq8T9xLXazC+eLGNtlJl8ZSV9fwdXWFHGXyvVDTzCHkQ8qzKqr5jv8AIwlyCVLe6t9m2E7uOHt8CUmOg7z0q78PULUzLMiJXuobEwqmEX9Um4RNrWn+q645v8O5dQ1GKYBg+DMrYw3EailS71unBhtsqdPfczWpJbrMz6zNRmZmAy/fUya98HANI8ksm1e4nXRJpIfyblILurY/jTGUX/hu9jetuRnvkGolRi0ZXji4zWlIkp+Mu7JpKQr9EVBl49/io4AJ7G0H04VIROyatmZfNbUS0yMnnO2hIUXiU208pTLR/wDRtoLfr8Y30ePHiMIjRWG2WWkklDbaSSlKS8RERdREPoAAAAAAAAAAAAAAAD5yI8eWwuNKYbeZdSaVtuJJSVJPxkZH1GQ+gAJ7J0H04TIcnYzWzMRmuKNapGMznaslqPxqcaZUll0/+kbWW/X4x8vY3rbjh74/qJUZTGT4ouTVpR5KviLuyESUJ/TFWZ+Pf46OACcd9TJqLwc/0jyStbT7udSkm7h/LsUcu6ti+NUZJf8Ajt3+KaoaeZu8uHiuZVVhMa/loSJBJls9W+zjCtnGz2+BSSGoHQZXgGD50yhjMsRqLpLXW0c2G26po99yNClFxIMj6yNJkZGA78BOO89KpPD091MyzHST7mG/MK2hH/VNuaTi0J/qtON7fBsXUHSmvGNntZYxjOaRU+N+nlrqph/NFkm4yoz+M5KOv4OvqCjgJynXjCK9RM5xHusIeM9jPJK5cSMR/F3YXFEUf9l4/wDxIbyttK25hN2NRYxp0R4uJt+M8l1tZfGSkmZH+gBygAAAAAAAAAAAAAAAAGcy7UnTrT9UVGeZ9jmNqnEs4pW9qxDN8kbcfBzqk8XDxJ32324i38Y0YmF8yy/yksPQ80hxJYPkZ7KSRlv3fTfGA5ftjuT128ad+dEH0oe2O5PXbxp350QfSjedHwPxGP8Aqk/4B0fA/EY/6pP+ADB+2O5PXbxp350QfSh7Y7k9dvGnfnRB9KN50fA/EY/6pP8AgHR8D8Rj/qk/4AMH7Y7k9dvGnfnRB9KMFaa+6Eua7Yzao1qwNUJjEryO7JLJIZtIdXMq1IQpfObEpSW3DIjPcyQoy8Ri89HwPxGP+qT/AIB0fA/EY/6pP+ADB+2O5PXbxp350QfSh7Y7k9dvGnfnRB9KN50fA/EY/wCqT/gHR8D8Rj/qk/4AMH7Y7k9dvGnfnRB9KHtjuT128ad+dEH0o3nR8D8Rj/qk/wCAdHwPxGP+qT/gAwftjuT128ad+dEH0o7nFNWNLM7sXKjB9S8UyGeyyclyLVXMaW8hklJSbhoaWpRJJS0lxbbbqIvhIaPo+B+Ix/1Sf8BOLRlljlJYghlpDaTwfJD2SkiLfu+m+IBTwAAAAAAAAAAAAE71k+8b651n7QUQTvWT7xvrnWftBRAAAAAABhpWuuiMGU9Cm6x4PHkR3FMvMu5DEQttxJmSkqSbm5GRkZGR9ZGQDcgMF3/9B+2zAvOSH6QO/wD6D9tmBeckP0gDegPNWAf/AGgXJ1zLUO60russiYvkVXZPwopWMxlUGzZSsyafjTG1KZUTiOBXAaiURqNJcW250mPr5imQt8WmtJkOd8XUh+jrz7hWfyTpBtRVfLwuqMi+DrLcKYAnHPa95L/IwsTwiKr+nIcdupvD8raOYZaV/vvEXj6/EHeVhXPh6hZzlmXKPrVHlWJwoXzHFhEy24n5HSc+UzPrAdvkur2mmIz+h7vMa9Nqe/DVxVHLnr28fDFZJbyvg8SD8Y6jvk55fnwYLo7bqaV7ifk0pFPGP5eb2dl9Xj2VHT8/j22GNYhieGQejMQxmqpInUZsV8NuOgzL4TJBERn8o51jPYq6+TZSW5C2YrSnnExozkh00pLcyQ00lS3FdXUlKTUZ9REZgMD7DtX8i68r1UYo46vHDxSrQ0si/BVKl88pX9pDbR7eLY+scqt0M0xhTW7Wyx08hs2j4kWGRSXbaQ2r421ylL5r5m+EiLqIiLqGG065QdnlGNXeeTayzsIT1uqqx7HY+HTqazddJ1xCGu6LR5piWtSWzWpaUsNtbLStW6TMaGTygIiIdYVdpfnNpdWLM51yiiRoXdsNUJ5pqS28pySljiQbqTLm3VpcIj5s1maSUFUSlKEkhCSSlJbERFsREP6PjEkpmRGZaWnWkvtpcJDzZocSSi32Uk+tJlv1kfWRjHwc0yCzrcqyCsx9yfCqnpEOohRUtlNnvRjUh5RG+80zsp1JoQlS2y2bNSlkSyJIbYBI2tc5FXp/ht7Mw/IcsvcoqVWCINDXxYji+abbW+o25M02mCInN+FUpZeCaSWtRpJX5LXDIpup1BiuPaT5HcY3e0KLlu6jO1iG0JccZInTS9OQ6TaEu7LSTJucRlwEoiMBXgHGsZT8GvkzI1bIsHmGlONxIym0uvqItybQbqkIJR+IuJSU7n1mRdYyulmYXua09lZZFRzKWXGtZEPoybGjtSYaEcJpbdVHlymXVbKI+cQ4RGSi8BBkZANmAyOVav6TYJdQsbzfVDEcet7IkqhQLW7jRJMklK4Em206tKl7q8EtiPc+rxjQ3dvDx+mn31ipSYlbFdlvmhPEom20GpWxfCexH1AOaAjOnPKGfzGVldfa4a2ibjlem2Zj4/YruDlsHzhHG4+YZbKchTfC7HbU6lCnGyN0+IV6vl9IQI0/uaRG7pZQ9zMhHA63xJI+FafgUW+xl8BkYDkAMHf51ktfqXj2GsYnZxaixdcS7ePR4b8KUso7jpR2jTORJYcLmzUa1xXGzJJpIyMyUWytbWso62Vc3VhGgQITSn5MmS6ltpltJbqWtStiSRF1mZgOUA6vG75rJqlq6jV1hDjyTNTCZ8c2HXGt/BcNpXhoJRdZJWSVkR+ElJ9Qw2f6/YfptqJjGnOSRH0SsscbZgyk2dWgucW5zaU9yuy0TXfDNJGpiO6lPFuoyIlGkKaAlauUBVoZvrR3TvNU0WPs2i3rruOMqI87AccQ+w2SXzd4z5tRoUttDa+oiXxbpJfa+xMWwS6z7J9N8opIlLJaaUxby6euOQy6ZcEluRJnNxCbPiLdLj6HUn4KmyVskBVAE1p9fMNvccjZTWQrN+DPomr6CpsmHCmtrd5nmGVIdNC3ScNtPUrmz51s0rUR7lRnXTajrfNB7oQa+Ez6+ot9gH0ATS613xTEtFq7WrMUt1kCfBhykxV2EZn7tJJPNsFIlLYYSZqWSeN1baPhM0kOhjcqrC7TFajLMZxPJchYta+baLaqVV8gokaG6hqUtx8pXcyybNZH9xedJwiPmuc8RhaQExu9doNZl0DFarT/ACq+ZmzY9a5bV6q9EOLKfY7oQ04UiU0+Z8zss1NtLTsZFvxbpLJU/KGz2wwHJcsuNG77HXaO3VCZXYHAfaktlZJjGyhuHOfdVIS2Z79SUGsvANRbEYXsBhKnVdu0xSxyNeBZXGm1NkVVNojjx5Fiy6a2yJXDHecaUjgdQ7xJcPZszM9lEaS3YD+KSlaTQtJKSotjIy3IyGDstDNMZs1y1rcdPHrN0+Jdhjsl2pkOK+NxcVSOd+ZziIy6jIy6hwi1YkV2b38HN6t7DMZoapc87O+OA1GlIQ9wKlIltT3OaZIjTuh+O0rwiPi8aS6ZHK75PDumcvVdrVTGF0sJamHUpvIJulIIlGmP/LcHPLSg1JQaiNSesB3nsO1fx3rxTVRi8jp8UPK6tDqzL8FMqJzKk/2ltunt49z6w75OeUB8GdaO26Wk+7n4zKRcRi+Xm9mpfX49kx1fP4t+ZK1QqZMHGczxS8pMgw28mIrnbGukpkpS4+sm47zTzazbWjntmlJIjPd0lcREhRK3YDH41q9ppl0/oekzGvValtxVcpRxJ6N/FxRXiQ8n4fGgvEY2A6jJcQxPM4PRmX4zVXcTrMmLCG3IQRn8JEsjIj+UY/vKwqbw9Pc5yzEVF1pjxbE5sL5iizSebbT8jRN/IZH1gKOAnHPa941/LQsTzeKn+nHcdpZvD8ja+fZdV/vskfj6vEPlI18xTHm+LUqkyHBOHqW/eV59woP5Z0c3Yqfk4nUmZfB1HsFMAYI9ftCCPY9a8CIy/wD8kh+kDv8A+g/bZgXnJD9IA3oCCv8AKGySlr7FzIaGsKbDu7NERlla0pn1MfuwkOINRmaHiXFShw9lJTxpUSdlpItPD1AybALhELXHMcHZr7SI/Ph2USO5UMwebcZQcZ45Ml1Lyj59PC8SmtzSZc0W5AKmJnc/zlMQ+o2R/wB/phm9XuWJojpTgk3Oo+aUOWIrnY/dFbRXsF+abC3UocdbaN0jcNCVGrgT1ntt1Fuoui0v190l5QmtuI5bpLmMS8hM4RkLcptBKbkRHFTqYyQ80siWg+o9ty2PYzSZl1gPRoAOPPmNV0GTYPpUpuKyt5ZIIjUaUpMz23+HqAcgBArPlnaY0GQY9i+VVFnQWmRMsyWodnaUrEllmQ6puIs2Dn889z5p3SmOh1SCMueJrrItZhWuMe/wuNkmRYnbUs5UKumyYDnc7imimyVsMkSm3loVspHEfhe5Mvh3SQVEBHneUjDahwLJOkmeOw5kVFm6+hFZwxK1SyQU10jmkrm9z35tBLeMkqMmj2H11n5SuFaH3lRQZPA59+6aN1g/ZJj9bsRLJHuLOxiuOdZ+NpCy+DffqAVwBL9YOUFiGijFDMyuvlOxb58mGnmrGsjk2o+HxJly2VyFbK35uKl5wyLqQe6d/tG1tYnZCmgr9N8vkk5KnR25qEwCYcRDdJqQ+RKlE5wJWpJbGglq38FKusBSgEWwXlX6c501YvMwp1c1U2S6yc85YVc5iK4mM6+SnXq+ZIabI0suJ4VLJxKiIlISSkmdborVN7SwLtMGXCTYRmpRRpaCQ+yS0kokOJIzJKi32MiM9j3Ac4TO5/nKYh9Rsj/v9MKYJnc/zlMQ+o2R/wB/pgFMAAAAAAAAAAAAATvWT7xvrnWftBRBO9ZPvG+udZ+0FEAAAAATXQOHEc0zircisqUdrc7maCMz/wDacoUoTvQH3sIn0rc/acoBve4IP4mx+rIO4IP4mx+rIfcAEjwXkq6IYFmt/qTCw5i1y7JLCTYzbu42lykqdcUrmmTUXCy0glc2lKEp8BKSM1bbjv7PQ3TGdNctq/HPY/ZunxLsMeku1MlavjWuKpBu/M5xEZdRkZdQ3oAJx7DdXsd68T1WZuo6fFCyurQ8sy/BTKiGypP9pxt4/j38Yd8jPsf8HOdHrbmk+7n4zLbt4xfLzRk1L6/HslhXxb+LejgAx2Nav6aZZPKnpsxgdK9W9XLNUOenfxcUV8kPJ/SghsR1GS4jimZQDq8uxqqu4Z7/AHCwhtyGyM/hJKyMiP5Rj+8pAp/umnub5ZiCi60sRLHuyEXyFFmk80hPwbNE2fxGR9YDnzdJqZ/DI+HwL25rFwJ7lpX2sVbJzYUtbzjvOt840tlWxvOJ4XGlpNJ7KSofvFdKqbFZ1Xbourizsq2LOYdmT3WlOTnJjrTr77xIbQknDWykyJtLbaSM0pQREkk9bzuvmNfysXEs3ip8amVu0s3h+RCufZdV/vsl8PV4g7+WP1P3PUDGsnwtZe7dt61S4afjM5sY3YyS+LidSZl8HUewUcYepwW9q4OVY5ByR2qrbeW/Pqp9elo51e5JUpyQkkSGnWFbOmpaFKQotnDSaPAJStPRZHj2UQEWuM31dbwnPcSYEpEhpXzLQZkf/EdiAnGFaJ1+H1NDVSs3yXITxyHMgQZNp3El0o8hLaTbV3NGZQrgJpPCfDxdZ8Rq6tuSWkUSG/iMnH80yKkcxKAmqSqIUJzpKEXNbsSefjueCZsoM1M80sj32URHsN8ADhXTt0xUTHscgQp1ohlSocabMXFjvO7eClx5DTqm0mfjUTazLx8J+IdBpxSZLUVM6Xl7FZGt7ixespUWtlOSo0VSySkmkPuNtKdIiQR8ZtN7mZ+CWw1gAMjlWl+NZldQr+3s8ujyoBJJpuqy+2q4yuFXEXOR4kltl3r8fOIVuXUe5dQ01hAh2sCTV2MdEiJMZXHfaWXguNrSaVJP5DIzIcgAEmqtE5eB4Xd0+FZRbW1pLq00tQ5bTmYCKiCkjS0xHVBioJCWuNS0rU2t5SiSS3DIkmmj43WTKXHaumsbZ60lQITMZ+c//KSnEIJKnVdZ+EoyNR9Z9Z+Mx2QAMNaVGeXuotRIl1VBExbH31z401u1eesJjy4zjJtLinGQ2ygueUrjJ9wz4CLgLi3LVXtDR5RUSqDJKeFa1k1HNyYc1hLzDyd99loWRpUW5EfWXwDngA6vG6FrGalqljWNhMjxjNLCp8g33W2t/BbN1XhrJJdRKWalmReEpR9YyGT6LU+U5mWYSMqyCGhw65yXVxFxkxJjsGRz8ZxxSmFPkaVGZcKHUoURnxJM9jKhgAyS9M6FeDXen5y5/R1+qyVJd5xHPIOa6447wHwcJbKeUSd0nsRFvv1mf6zvT5jOKusgoyS3oZdNOasIFlWJjKkMOoQpHUmSy80ZKQ4tJ8TZnsrdJpURGWrABLYWkLtfeYhWxSR7G8NQ7Ijy3rFbs+a+4s1cw81zKUc0lZNPE5zhqNbSCNJbGo9hHw1LGZ22YqyfIHitq2NWnUOzeKtikyp1XPsMcPgPOc9s4vc+Im2y2Lh69EACU1Oga6zDfYS9q/nM+LCVEXRyJCKlEiiXGP7kqMpqChLmxbJMpKXyURbGR7nv3itJ4s+ElnJcxyC+nHRT8fesZhQ2n32JakG4tSY8dponE82kkmltKdvGlR9Y3QAPNznJ+1Jr+UfE1Txx7Go9Q33JGdsHVQl2RwG46G3IxocqHJJ8Zo23as2Gy4uLmtyUlymlozCNzIIz2b5K7S389uzKlUUEosCSmSiQtcdaYxSPujqN1JddcSXGokkjq2ogAJ1mum95Lx6/qsCvZNVYZXcMT5tkdguO7ASlLKVrj802ZuHwx0FzSlJJXGvdZF1CiF1Ftvv8o/oAMNjVTn03PLDK8zqcfqosaI5V1bNXbPT3JLBvE4T75uRmCYXslJc0nnSIzP7oexb92eC4seIvYJ0X/wCw32XY7kXn3PCbcMzWXHxcZbmo+vi36+oc29yPHsXgLtcmvq6ohN+7kz5SI7SfnWsyIv8AiMT38setvuen+NZPmiz9w7UVqkQ1fFtNkm1GUXx8LqjIvg6y3DR5Rj1jkM+khk5GapoMxFjNJSlG886wpKo7SU7cJJ5wiWpRq3+5JSST4zUnSCcc7r5kv8lFxLCIqvEp5bt1N4flQnmGWlf77xfD1+IO8pAuPD1CzfLMvUfWpiXY9xwj+Q4sImWlp+DZ0nD+MzPrAdtkur+mmJTzp7nMYHSvXtVxDVMnq28fDFYJbyv0IMdT3yM+yDwcG0etuaV7ifk0tuojH8vNETsvq8eymE/Fv49thjWI4phsAqvEcaqqSGW33Cvhtx2zMvhNKCIjP5R24Ccew3V7IuvLNVmaWOrxwsUq0MrIvwVSpZvKV/abbZP4tvGOVWaG6YwZrdtYY57ILNo+JFhkMl22koV8aFylLNr5m+EiLqIiLqG9ABxm6ytZbS01XxkIQRJSlLSSJJF4iItuoh+u4IP4mx+rIfcAGSsNKNPLZdUu0xaLLOlmzbCDz6lrJp6Wl1MkzI1bLS4T7hKQrdHhF1dSdvzh+lGEYNIlS6KFYuvyy4DdtLibaLZa335hg5brpx2SMiMmWuBsjIvB6iGvABh9WtHML1pweZp3mbMtNJYusLmtQH+5lyW2nUucytaS4ubWaCJREZGaTMiMvGMPjOm2A6V66YTiunOIVWO1LGC5GSYtfGS0kzKfTeEoy61q+NSjMz+ExcBM7n+cpiH1GyP+/wBMApg+UqMxNivQ5KONl9tTTidzLiSotjLcusuox9QAYmz0dwa0tqi7NF9Al0rLEeOdTktlWoeaZPdpuS3GfbRLSnrIkvk4Wyll4lKI+t9r1pWUmuklWXZHVpQhhssmsyZWhuQchpDzXdHA+lt1SlNpdJZNkZpQSU9QpAAM13uML6N6I6G/0Q6pFLzfdDv/ACJBmaWt+LfqMz8Lfi+UaUAAY3NtIsH1DsY1plEa3cejRnIZohX0+AzIYWe6m5DUZ5tuSnfrInUrJJmZltue/PLTvDibWydORocZsI6yN90+Jua4Tkoj3V/TURH8niTsXUNGACTWnJyw53GzxOmkzkQJ06A/buXdlYXcqXGiOm62wh+ZJWto+I9iUZrIkGpJJ6yNNYIiItiLYiH9AAEzuf5ymIfUbI/7/TCmCZ3P85TEPqNkf9/pgFMAAAAAAAAAAAAATvWT7xvrnWftBRBO9ZPvG+udZ+0FEAAAAATvQH3sIn0rc/acoUQTvQH3sIn0rc/acoBRAAAAAAAAAAAAAAAABib3RfTHIJ67mRiUaDbL91a1LjlbPP4t5MZTbp7H17GrYdd7ANTMe8LCtXpUtlPuYOV17di0RfgpfZNiQX9pxbpkfwH4hRwATj2eao474OZaRPWDKepU7FLJucgi/CVHkEw8X9ltLp/OXWOfS62aX3dg3SpyxistnPc1dy05WTlH8PDHlJbcVsZ+NKTLrLr6yG4HAuqGiySAuqyKlgWsJ33cabGQ+0r50LIyP/gA54Ccd4vGKr7pgF9keEuF7huksldxp+LaFIJ2IRfM0Xz+IO5te8a649jiebxU+JEtt2lm7fK62T7Liv8AqmiPxbl4wFHATjv0xqbwNQsCy3EzLqVJfrjnwv7RyYRvIbT8rvN/KRH1DXYzmWI5pC6Sw/KKq7il1G9XzG5CUn8Rmgz2P5D6wHcgAAAAAAAAAAAAAAOmybMsRwuF0lmGUVVJFPqJ6wmNx0qP4iNZlufyF1gO5ATjv0xrnwNPcCy3LDPqTJYrjgQv7RSZpsocT8rXOfIRn1B3Nr3kvXIscTwiKrxoiNu3U3b5HXCYZbV/1TpF4tz8YCjjD3Wtml9JYOUqssYs7Zv3VXTNOWc5J/BxR4qXHE7mR9akkXUfX1GOB3i8Ytfumf32R5s4fu27uyV3Gr494Ucmohl87R/P4xuKWhosbgIqsdpYFVCa9xGhRkMNJ+ZCCIi/4AMP7PNUci8HDdInq9lXUmdldk3BQZfhJjxyfeP+y4lo/mLrD2AamZD4Wa6vSojKvdQcUr265oy/BU+8b8g/7Ta2jM+vYvEKOADE0Wi+mOPz0XMfEo062R4rW2ccsp5fNJkqcdLc+vYlbDbAAAAAAAAAAAAAAAAAAAAjWoma4bgnKEwu3zjLaXHoD2G5FGblWs9qIyt451QomyW6pKTUaUKPh332SZ/AYso+TsWM+rjejtOKItt1IIz2/SAwHtjuT128ad+dEH0oe2O5PXbxp350QfSjedHwPxGP+qT/AIB0fA/EY/6pP+ADB+2O5PXbxp350QfSh7Y7k9dvGnfnRB9KN50fA/EY/wCqT/gHR8D8Rj/qk/4AMH7Y7k9dvGnfnRB9KHtjuT128ad+dEH0o3nR8D8Rj/qk/wCAdHwPxGP+qT/gAwftjuT128ad+dEH0oe2O5PXbxp350QfSjedHwPxGP8Aqk/4B0fA/EY/6pP+ADB+2O5PXbxp350QfSh7Y7k9dvGnfnRB9KN50fA/EY/6pP8AgHR8D8Rj/qk/4AMH7Y7k9dvGnfnRB9KMtVai6fagcpLGl4HnWPZImDg+QFKOos2JhMGufT8HHzSlcPFwq23234T28QsvR8D8Rj/qk/4D9tRYzCuNmO02oy23SgiPb9AD6gAAAAAAAAAAAAJ3rJ9431zrP2gognesn3jfXOs/aCiAAAAAJ3oD72ET6VuftOUKIJ3oD72ET6VuftOUAogAAAAAAAAAAAAAAAAAAAAAAAAAADIZNpHprl80ra+w2ucsy3JNmwg409G/j4ZTJpeT8HiWXiL4hrwATjvaZxQeFgesNy02n3MHJWEXMUvk5wzbln85yD+b43sv1hxzqynS2Nfx0+OZilohbhl+EqLM5k0/2UOunt4tz6hRwAYCv110xkzGqq2yFWN2Tx8DcDI4rtS+4v8ABbKSlBOn8rZqIy6yMyG9QtDiEuNrJSVERpUR7kZH8JD4WFdX20N2vtYEebFeLhcYkNJcbWXxKSojI/0jBL0GwSC4cjCXLjCXzMzI8asXIccjP4Th+FEUfyqZP/xMBRh+VrQ2hTjiySlJGalGexERfCYi/c2s/fF72nfiZ6N6F6X6T9jcfpXfn+a5vnOLuXxde/c3j+AaRGg2CTnCkZs5cZs+RkZnkti5MjmZfCUPwYiT+VLJf+BAPvYa66YxpjtVU5CrJLJk+ByBjkV22fbX+C4UZKyaP5XDSRF1mZEOP7L9Ycj6sW0tjUEdXimZXaIQ4RfhJiw+eNX9lbrR7ePY+ob6vrq+phtV9VAjworJcLbEdpLbaC+JKUkRF+gckBOO9pnF/wCFnmsNy62r3UHGmEU0U/k5wjcll85SC+b4u4xnSPTXEJp21Dhtc3ZnsSrN9ByZ69vFxSnjU8r4fGs/GfxjXgAAAAAAAAAAAAAAAAAAAAAAAAAAAAAAAAAAAAAAAAAAAAAAAAAAAAAAAAAAAAAAAAAAACd6yfeN9c6z9oKIJ3rJ9431zrP2gogAAAACd6A+9hE+lbn7TlCiCd6A+9hE+lbn7TlAKIAAAAAAAAAAAAAAAAAAAAAAAAAAAAAAAAAAAxOrz91TYbLzPG5ZossXQ5asxnZDjcaalCFc5HfJHjSpBqIlGlXAvgWRHw7GHB/5wv8A3M/9cKIPI2oVnAw/WCgxvOdTahtSq2tlrVe602+IrekPTJByHIkCPxNzi34SJlxSUpSltojJKurX6f5VT+2EtqaLn5ZFYyn5iJcWPm0x6VASXEpDcvHXk8zXsNpQhCJTJpU8pTalJMnjMw9FAAAAAAAAAAAAAAAAAAAAAAAAAAAAAAAAAAAAAAAAAAAAAAAAAAAAAAAAAAAAAAAAAAAAAAAAAJ3rJ9431zrP2gognesn3jfXOs/aCiAAAAAJ3oD72ET6VuftOUKIJ3oD72ET6VuftOUAogAAAAAAAAAAAOkzHM8bwGicyXK7BUOuaeYjqcTHcfUbrzqWmkJQ0lS1KU4tKSIiPrUQDuwEz9sbpR+Ur7zVtf3YPbG6UflK+81bX92AUwBM/bG6UflK+81bX92D2xulH5SvvNW1/dgFMATP2xulH5SvvNW1/dg9sbpR+Ur7zVtf3YBTAEz9sbpR+Ur7zVtf3YPbG6UflK+81bX92AUwBM/bG6UflK+81bX92D2xulH5SvvNW1/dgFMATP2xulH5SvvNW1/dg9sbpR+Ur7zVtf3YBTAEz9sbpR+Ur7zVtf3YPbG6UflK+81bX92Ad1lmVWFTnGE0UCSyUW5nzY1gk0kpXC3AdfQW/wDRPiSg/m+cbIf5tcqvS7ENZuUjg+b4nlWXV+G3znMajxY1NbR23mYzZk24bZMkbi32jOKZpJWxEgzLh4jL2pF5Qej0GMzChSrqPHjtpaaaaxO1ShtCS2SlJFG2IiIiIiIBUQEz9sbpR+Ur7zVtf3YPbG6UflK+81bX92AUwBM/bG6UflK+81bX92D2xulH5SvvNW1/dgFMATP2xulH5SvvNW1/dg9sbpR+Ur7zVtf3YBTAEz9sbpR+Ur7zVtf3YPbG6UflK+81bX92AUwBM/bG6UflK+81bX92D2xulH5SvvNW1/dgFMATP2xulH5SvvNW1/dg9sbpR+Ur7zVtf3YBTAEz9sbpR+Ur7zVtf3Yd3h+rmB55bPUWNWc12exH7rWzKqZkM+Z4iTxEb7SCUXEoi6t/GA2IAAAAAAAAAAAAAAAAAAAAAAAAAAAAAAAAAAAAAAAAAAAAAAAAAJ3rJ9431zrP2gognesn3jfXOs/aCiAAAAAJ3oD72ET6VuftOUKIJ3oD72ET6VuftOUAogAAAAAAAAAAmfKB/wBTqL684j9vQhTBM+UD/qdRfXnEft6EApgAAAAAAAPhOnQqyE/ZWUxiJEitqefffcJttptJbqWpStiSkiIzMz6iIh1eIZvheoNMnI8Cy+lyWpW4ppM+nsGpkdS0nspJONKUkzL4S33IB3YAAAA6DNM4x7T6m9kGUOT2oBPNsLdiVkmbzRrPYlOJjtrU22R+6cURIT41KIh34AA+E2bDrYjs+xlsxYzCTW6884SG20l4zUo+oi+UwKbDOYdcUtnusmifNjnC5wmzMyJfD4+HcjLfxbkA+4Dg2dxEqXITcpmcs58lMRo40F+SSVqIzI3DaQomkeCe7jnCgj2I1EZlv+Y99Uy7ubjseVx2FcwxJks82oubbeNZNq4jLhPc2l9RGZlw9e25bh2AD+GZEW5nsRDHW+sGndFQw8ns79bdZYJlLiPohSHCfRHacddWhKGzUpJNtLWlRFssiI0GriTuGyAZhWqOmiMvj6eu6hY21lUtlMhihctGEWTjRpNRLKKaidMuEjPfh8RH8Q04AAAAAAAAAM2eouHJy0sG6VWd2bxR+5iivGROHHOQRG4SOAvuRGrc1bdW3j6gGkAdfSXtVkUI59PK59lDzkde6FNrbdbUaFoWhZEpCkqIyMlERjsAAAAAEz/5yn/cb/14pgmf/OU/7jf+vAUwAAAAAAAAAAAAAAAAAAAAAAAAAAAAAAAAAAAAAAAAAAAAAAAAAE71k+8b651n7QUQTvWT7xvrnWftBRAAAAAE70B97CJ9K3P2nKFEE6Lk+6VJcecZpbOP3Q+7JWiPf2LLfOOrU44ZIQ+SU7rUo9iIi3MBRQE77wOmH5Pu/Oaz/eA7wOmH5Pu/Oaz/AHgBRAE77wOmH5Pu/Oaz/eA7wOmH5Pu/Oaz/AHgBRAE77wOmH5Pu/Oaz/eA7wOmH5Pu/Oaz/AHgBRBM+UD/qdRfXnEft6EOR3gdMPyfd+c1n+8DCawaQ4Ji1Ljd5TQ7REyPnOJ82p+8nSEFxXkNJ7tuvKQfUZ+Mj28ZdYC/gAAAAADEax47c5Pgr9fRVrNnIYmwZ6615aUJsGo8lt5yNxLMkEbiWzSXGZI3MiUZJ3MTrUmmvNUY9FeZbybri/qmWpsReJ3Mmlckw5y1Ndz2J/wCmLjcKEpdIltvKfb490NmZntbb2+o8Xp5eQ5Ncwaiqr2lPy506SiPHjtl41uOLMkoSXwmZkQz0jWTSGJi0bOJWqmHs45NbW7GuHLyKmC8hCiQpSHzXzaiJSkpMyPYjMi8ZgJMxoPddPxszu8Zg2uW09pjZ1966627IZjsx4zVithxw+Nslkl5LnUlbqSIjJXgkOuoNKcxjK1OYxzS/oRjIEcSrC6jVLF3eulKUtxlU6vkOG/FWwa22zlobfbNfhLc4jNu7S9S9OYFxW47Oz/G49rcrS3XQXbVhEiYpSONKWWzVxOGaDJREkj3Lr8Q+FTqzpXfuW7VFqZilivH3yi26YlzGeOveNZtk3IJKz5lZrI08K9j4i28YCLPYbkuP6L5pUafcna1oY2SSyRUYVWyaaO5XJ5pCXX1oTMTCZS44hSzQw8sz4iUZcalknj6iaWZXqJrRiWo97h2oDMJiLWu17VaWKrdxyQh9TklMp2ZzklnnCNpK1Vr6uNCFJM+pBncM61Gq8JpZVmxVzcimRZkSvOpqHYpzFSJK0IZb2kPNNoNXOJV90cQXCe+4+F/q1heN5Hj+F2dvXtZPkbjaYlC5bwGbHm1Eo1PEw6+hTqEcKiVzPOK6j4SVsYDr9QEZvlVPnmExsHIoC8fNNNZnYMrKymOtuktjmDNJtc2aW/DWokq5zqMuEzE0kaR6g5dcoTn9Aqzq3JtK+8iTNacSqPzsl+VHWklmam2lvE1wdaVo8EiUnciskLPO6dQ5mnkrE7qA7Hr+kotnIVEVDnsktCF8zzb6nkqQpxJGTrTe/wDR4i6xqgEK1K06q8PZ06g6Zcn2Tfs4lfdIQjp+imug46lKN9tg50phTSV85sTbPgklPDslJJIfiXo/j1Vr/N1CrdAKqVY5HWsqj5jGrqknqSwQiSl119bjiZXG4lxpPGwh01bbK2ItxeBknNU8ORnCdO2XbeZdbkl/uGinSocRZt84SJMxplUaMs0bKJDziFGSkbF4SdwgeimhuWYZgWolaukzOtya/pVRJD1uWNtQbSx5t0ly2Dp0NvOrcWvrfmpJ80mjfYyUL5j0bCNQMOpp6ser5sAohtMRpsJKzibtmy8waHE7tqIucaWkyI/dJP4SH0qdVNML6LazqLUjFrGNRSu4bR6JcR3kQJPFw8y+pKzJpzi6uFWx79Ww47+sukEXE4efSdVsOaxiweKNDul3sVMCQ8ZmRNtyDXza1bpUXCSjPcj+IBKr7BdS39f5NlApcocxmTaVNkhXP0xY+fc7KEOOPpNRWndKOBXNpbLmDUTRqIy4jExwrk76kUk7UZ7G8EtcZtsihXjT1zLZxuOctb843WEwXoBKkO8bZnxKtEuGgzRw7buEfrWVqDgUHJ6/CZub0EfIrZg5MCodsmUTZbJbmbjTBq5xxJcJ+EkjLqP4hxMe1Ai3ltlFRPoLOhcxV9Dch2zcik1IZW3ziJLSmXnNmjSR/wApzay2PdBAPM8XS6RjOl9NppH5OGf5RR2mSqtrfG7iDhyGmYsdtKiJMeE8xVoQ4+bKiQRk4o0vLMjMtz5cfSXVLLcBxmkYxGyxuDXY1VxJsB2YxGkqnV1gs0QzJpw0Gx186akr4FpbQkjUlaiHp7Es0w7P6VvJcEyymySoeWttuwqJ7UyMtST2UknWlKSZkfUZEfUY6XLtXsFwbIYGMZLNtGJlgltxDjFJOlRWEOO802qTKZZWxFSpzwSN5aCMyPYBg3OT7jlfqHqDneGadYrQ5Bd0DceoyGNWRWZSLFxMon3edQjnUqM1sGtZ+62L3XD1ZXSLRuRiOkmf0EvS/Mpb95FUh/H76VjlYzbvcyol9zuUZIab51SjJT76UvK8E1e5La9s59gkjJZ+FsZrQuZBVRimT6lFkycyJHMiMnXWCVxtoMjLwlERdZdY6yt1m0fucSnZ9T6rYdOxisUaJ11GvYrsCKottydkJWbaD8JPUpReMvjAaqC3zUKO13PzHA0hPNcfFzexF4O/w7eLccUscx4rU70qKu6SNZOHM7lRz5rJs2yVzm3FvzZmjff3J7eLqHQ4VqthWfwaafjloT7eQRpc6tMiJxMmNGfSy48hxs1Nmg1LbNJ8XhJWRl8O3JY1CxqVnU/T6NPiO2dVXIsp6W7GIpURtatkE6wT3dDfEXhEtTRNmXiXv1AMrU2mPV8PUrUCxnw4mKSn1OqkzJSYsNxEeIhqRIN1WyUNqUhSDc32MmuIjMtjPvtG3WXtJ8QcjYi/izJ0sQmqR+Qt9yuQTSSSwpxZEpZpLYuJREZ7bn1jmVep2m13GuJtLqFjU+PjxcVu7Fto7qK4uDj3kKSsyZLg8Lw9urr8Q+bmp2FPYY1nuP3sPI6eYpDVe/SSWpibB5bnNttR1oVwLUpw+EvCIiPfiMiIzINUA6dWUQWcoYxKVHkx5cuEqbEccSnmpCUKJLqEKJRnxt8TZqIyLcnCNJq2Vw82LbVU2ZMroVnEkS69SETGGnkrcjqWklJJxJHugzSZKIj23I9wHLEz/wCcp/3G/wDXimCZ/wDOU/7jf+vAUwAAAAAAAAAAAAAAAAAAAAAAAAAAAAAAAAAAAAAAAAAAAAAAAAAE71k+8b651n7QUQTvWT7xvrnWftBRAAAAAAAAAAAAAAAAAABM+UD/AKnUX15xH7ehCmCZ8oH/AFOovrziP29CAUwAAAAAAZXVClyvIsEtqbCbBEO4ktoJha57sElpJaTca7pZQt2PxoJaOebQpaOLiSW5EJzpfoVeYlOoZuQHXyEVk28nLaeuJtw80c5LBISUuak3nzSSHUKccMjNJlsREfAm4AAw1DplU1eWZHbyKSlVXWaKluDHRGSZsJhIPm0mk0ElJIWZKbJJnwn1lsYk9JpFl2NzMwzHVyTJsotnSTqaQdbc3ORyZiXpCFNyGYCmOCFuncjjRGzQg0pM1uF1o9IgAhmQVmQY5o7VX+U09jMvXcgp76/ZqK2RYSEqTLYNwkR46HHXOaZbQnZCVHs3v1jVZxk0a6yTGMLq6bJH7BVjAuVvHj05EFmKhZqUbk1bJRkOESf5FThO7mXgdYpIAJvGseldf3GotVdJapsYeiypkinlsQ1POyWFoQzJcbSy+rhQozJpa+HbZWxjsNYcCyDUbEDx3Gst9jsw5Lb/AHbzlmjwU77p3rZ8F/r3/wD7/D8aVdW24ABnNPMZtMOwyrxq6vOmJsBnm3p3HMVz6uIz4t5kmVIPx7fdH3D6vHtsRY6NiWqNPk+S0ddCxyXh+WS5E963cuJEa2rXHo5NqbRETFW1JJK20GlZyGjJK9uH7mRrqgAIJH0X1Bv6Y67MKzC4J18SnpIjVdKfktWEKFNafU9I5yO3zSlIbUSI5E6lBrV92USty5OcaTajPpnTcHaqkXj+RzLSst/ZNJq3admRFaaU4ltMKSzMUakKUqM+g2VGSFGfERGm5AAjs/THUN/KZDC3Mbn0dzb1V9YW8h95uwiyISI5cyxEJpTa0OHG3Jw30G3zyyJC9vC66+021bzOVqhT3dXi9RTZjBbjVk6vyea5MJTKOBBPNphsmyThe6U0+pSN9k8R+EVzABH8CwPUXBdOrlnGscx+ozGxnIkkVrm1zlMV/Ym0Gt6bNablb80g0pQSeFJpT17GY++pOjllmeaR86hWHDLqYcFMGE5ay2IMt1mUt5xqZHbM2X21JUkkKcQ4ptfhoSRl11kAEBx3QrMaHULIchSyw4cpdvNpsgezq4kLhSpnGaSKidbOvb4OcNBuoc4lEnfgI1qIdRhuhOreMtryl5FFLyBNpXWhVdpmltdR33GGJTDnFYzI6nmt+6EvIS2wSEKSaCQRfdD9KgAhtbp3rLhR4daY7WYXkVlUxLqHatzbqVUsH3dNakE6waIkpStibMjbWRbcXuz23Pvrmg1an6vs30fGsR9i3QMimclryOSVglTxocNxMUoJtqInGyRscgt0qNXUZcB1QAEAtOTvkUjBWsVrZtbDONiNJSpahWEqvS7KgSjfUgn46UusNOe4J5v7ojiNRJ3LY+dVafX2DYFR2CsONixpMm6fs62HlFhlL0ptTa2HHUzLBtuS+6lpwnCQaN/uRIRuZkLiADGZBCfyDP8AF2Wa6UmPjynrh+atpSGuJxh2O0wlR7EtZ864tSS34SbTxbcaN/jhEy3nZ1nLzuKQ6+pRKiMw7Eq12HKsXkM8L5vG4RG+lBkhLbqS4DSeyTVwmY3IAAmf/OU/7jf+vFMEz/5yn/cb/wBeApgAAAAAAAAAAAAAAAAAAAAAAAAAAAAAAAAAAAAAAAAAAAAAAAAAJ3rJ9431zrP2gognesn3jfXOs/aCiAAAAAAAAAAAAAAAAAADG6r4TbZ9ijVLRXMSrsItvV3EaVLiKlMpdhTWZSEraS42paVKYJJkS0nsozI+obIAEz6G5SnaPpn5lT/WodDcpTtH0z8yp/rUUwAEz6G5SnaPpn5lT/WodDcpTtH0z8yp/rUUwAEz6G5SnaPpn5lT/WodDcpTtH0z8yp/rUUwAEz6G5SnaPpn5lT/AFqHQ3KU7R9M/Mqf61FMABM+huUp2j6Z+ZU/1qHQ3KU7R9M/Mqf61FMABM+huUp2j6Z+ZU/1qHQ3KU7R9M/Mqf61FMABM+huUp2j6Z+ZU/1qHQ3KU7R9M/Mqf61FMABM+huUp2j6Z+ZU/wBah0NylO0fTPzKn+tRTAATPoblKdo+mfmVP9ah0NylO0fTPzKn+tRTAATPoblKdo+mfmVP9ah0NylO0fTPzKn+tRTAATPoblKdo+mfmVP9ah0NylO0fTPzKn+tRTAATPoblKdo+mfmVP8AWodDcpTtH0z8yp/rUUwAEz6G5SnaPpn5lT/WodDcpTtH0z8yp/rUUwAEz6G5SnaPpn5lT/WodDcpTtH0z8yp/rUUwAEz6G5SnaPpn5lT/Wo+mHYFqHE1DkagagZfjtq8qmKnYYpqN+AlCef501rN2U+aj36urh/SKQAAAAAAAAAAAAAAAAAAAAAAAAAAAAAAAAAAAAAAAAAAAAAAAAAAACd6yfeN9c6z9oKIJ3rJ9431zrP2gogAAAAAAAAAAAAAAAAAAAAAAAAAIxiV7ygNQIlrf0eW6fVVcxkd7TxIsvFpsp5LMC0kwkKcdTYtpWpRRiWeyElurYi6h3fQ3KU7R9M/Mqf61AUwBM+huUp2j6Z+ZU/1qHQ3KU7R9M/Mqf61AUwBM+huUp2j6Z+ZU/1qHQ3KU7R9M/Mqf61AUwBM+huUp2j6Z+ZU/wBah0NylO0fTPzKn+tQFMATPoblKdo+mfmVP9ah0NylO0fTPzKn+tQFMATPoblKdo+mfmVP9ah0NylO0fTPzKn+tQFMATPoblKdo+mfmVP9ah0NylO0fTPzKn+tQFMATPoblKdo+mfmVP8AWodDcpTtH0z8yp/rUBTAEz6G5SnaPpn5lT/WodDcpTtH0z8yp/rUBTAEz6G5SnaPpn5lT/WodDcpTtH0z8yp/rUBTAEz6G5SnaPpn5lT/WodDcpTtH0z8yp/rUBTAEz6G5SnaPpn5lT/AFqHQ3KU7R9M/Mqf61AUwBGMuveUBp/DqsgvMt0+ta5/IqKnlxYmLTYrymZ9pGhLU26qxcShSSkmst0KLdOxl1izgAAAAAAAAAAAAAAAAAAAAAAAAAAAAAAAAAAAAAAAAAAAAAAAAAAAAACd6yfeN9c6z9oKIJ3rJ9431zrP2gogAAAAAAAAAAAAAAAAAAAAAAAAmfJ6/wBQrX685p/5lshTBM+T1/qFa/XnNP8AzLZCiKsICJ7dWudHTNdaU+3GN1JOraSaSUskb7mkjUkjPbYjUXxkA5AAODTXtHkcLpLHrmDaROdcY7ohSEPt842s0OI4kGZcSVpUlReMjIyPrIBzgAdL7NsM9l3sA9l1L7KO4+kehO72u7+5OLh5/ufi5zm+Lq4+Hh36twHdAOlxfNsMziNKmYVl1LkEeDJXClO1c9qWhiQj3bK1NqMkrT8KT2MvhId0AAAAAAAAAAAAAAAAOPKsIEFyMzNnR47kx3mIyXXUoN53hNXAgjPwlcKVHsXXskz+AwHIAAAAAAABxXrStjzE179jGblLZXJSwt5JOGygyJbhJM9+FJqSRq8RcRb+MfSFNh2UNiwrpbMqLJbS8w+y4S23W1FulSVF1KIyMjIy6jATnlDf6g1f14wv/wAy1opgmfKG/wBQav68YX/5lrRTAAAAAAAAAAAAAAAAAAAAAAAAAAAAAAAAAAAAAAAAAAAAAAAAAAAAAABj9TcMu8zqqtrG72DVWVPbxbaO9OgLmMKUyZ+AttDrSjIyUfWSy2+UdX0Tyhe0DTvzPnesxRAATvonlC9oGnfmfO9Zh0Tyhe0DTvzPnesxRAATvonlC9oGnfmfO9Zh0Tyhe0DTvzPnesxRAATvonlC9oGnfmfO9Zh0Tyhe0DTvzPnesxRAATvonlC9oGnfmfO9Zh0Tyhe0DTvzPnesxRAATvonlC9oGnfmfO9Zh0Tyhe0DTvzPnesxRAATvonlC9oGnfmfO9Zh0Tyhe0DTvzPnesxRAATvonlC9oGnfmfO9ZjyxrLp1y8rblS0d5oxmlfWtM0MZq/uFQH4mPPMlIfNthUV+TJ7oeTu4Z80SDQTpHuRq4h7rAB5OiJvmuTkkrq7vysWc/yxdkziVZfH0o8nILM1spcpjXPhNKcLcnSNZI2SS0ukZoVpckxCnPU/TjUbMaTVCA5NoygLi0t5kU5qBYE7EW0zLRAcNBNbJcJx19BNOGjd4zPYUDk9f6hWv15zT/zLZCmAJDp5hE1jpfPssyPPjnnPvY7kF62nLjrr+7X+YJqERmlKktkk2nGUE6ZGkiUpPCksPhb1tnOmtHh9c9qxAjMZpKhWEizYvqy0VTrXMUzvMmpRKUg2uYSbxLNaDNJcaHCIy9LAA8T6hXOU17+OYTk91nsGpqor/dFpGt8pRMq47dnIbalylVbDqpRLjMoLisX2UGSTcStZm6afTGIkgtXM5JtRqR0ZR8Jmo1GZcMrbrPrP5zHb5TpVpfnNxXZDm2m+LZBa05kqunWtPHlyIZkolkbLjiFKb2URK8Ey6yI/GOf7CcM9l3s/9iNL7KO4+jum+4Gu7+5OLi5jujh5zm+Lr4OLh369gGb0+/181L+m4f2bFGC5WTWaz6aip8LVkUKU+5KeZsaeNfSTblIaLmI7rVRLimSXTUrZ2U73Mg2/DSo1FtYcXwnDMHjSoeFYjS4/HnSVzZTVXAaiIfkL928tLaSJS1fCo9zP4THdAIxhmFZLlWXSspzDIs5r36pdPIr2GrSTDhLX3AycpK4pGTL6VuGtK0uIUSFEZo5te6h1tJiGUY9pZd5+/YZ/cZVLpbFl6nm3lgpDp88s2TajIUS2HEIIkpVGJt1aT6zWvhUV5AB5W03kanYXp8eRWFvlNx0Rk/c9Y3YxbeEuzhTorLTaVR7aVJmbImPJP/SHVLRwOcJISfAWlzWJT4ZqvpB3dU5nf3NapyJNu2Met7Vppl2I8ySnJLTTrMfnH1INe60nsSFL8BCVJudhjmPW1nXXVpQ10ywp1uOV0uRFQ49DUtPCtTK1EamzUnwTNJluXUY7EB12Rv28agspGPx+fs2orq4bXMpd43iSfAngW6ylW6tuo3WyP4Vp90WG0QvNZ7yqs3dZ8e6JmtSEJhI6GiV3G1w+EfDGuLMl9fwqcbP+qfjFKABDtV6jC5Wq1dP1h00m5fjia2OjHjRisrIY0C0KQ4b7i2GGHu53DQcfhkLSkiShZEsusj7Wlwa/ss2yvM5mRZkxMq7pwqGEu2ks1bsU69hPNnEMyYeaN41q41JNSVpPgWnwiOuAA8a4W1qxC0tzmTf5bm11cT24DVhBXiOYwHKmWt8ylyoq1T3H5iUEoz5mpdYaNLRcBJJZGXZS8DtLLSjAb/VZ3VCevEsnmNSXKOTk8WxXWrVJbYf7jiynZ7h+FH2W4t59DalcS9jcHrgAEAv2dRXNU6LOsd0+RMxfHFwalNhNsJqLruSQ3wyjbhORFKfb3fjrcW5IQviiGZpM0df4i4FmcHR/Icwj5VqMeZ2VJYxu5nbaU8aHTeWcdbERziSy62kiShTSEmpKvunOHsZeggAedNa8EusVwSLjuIZBqA+i+vEvv2K7DJLp+rWbCupKayWxN5lxxKS4VSEx2jXxGSUESS7DHT1GcPBqG+tL9qfmGO1r1xzj7jble/A4FzD4SVuyp8nkNKNJ+6Lc9zPc72Osi4zjcK+nZTDx+tYurNlmPNsmojaJUppri5pDrpFxrSjiVwkozJPEe225gMphrjStT8+bsTLpVDsA4xLURq6LOMnmjQXjJHdHdm/wcRKGXOTBp9IdTbI596xjkaXcyYLuPOpbnsRko4pBw3FGSSWUgpRoMzIiPbbqIhXHqutkTE2D9dGclIZXGS+tlJuEysyNbZKMt+FRpSZp8R8Jb+IcSbiuL2NMxjthjdXKqYpsmxAehtrjtGypKmjS2ZcKeBSUmnYvBNJGW2xAJ5rbKZnaVY7NjqfU1Iy/BnUG+WzppVkVYZcf9bY+v5RWBM+UN/qDV/XjC/8AzLWimAAAAAAAAAAAAAAAAAAAAAAAAAAAAAAAAAAAAAAAAAAAAAAAAAAAAAAAAAAAAAAAAAAAAAAAAAAAAAAAAAJnyev9QrX685p/5lshTBH8f051xwtqzqcS1GwVNTLvbi6jN2OJTH5DRT7CRNU2txuxbSvgVIUklEhO5JLq3HadDcpTtH0z8yp/rUBTAEz6G5SnaPpn5lT/AFqHQ3KU7R9M/Mqf61AUwBM+huUp2j6Z+ZU/1qHQ3KU7R9M/Mqf61AUwBM+huUp2j6Z+ZU/1qHQ3KU7R9M/Mqf61AUwBM+huUp2j6Z+ZU/1qHQ3KU7R9M/Mqf61AUwBM+huUp2j6Z+ZU/wBah0NylO0fTPzKn+tQFMARFVrylE6hN4H7ONNN3KZdv3V7Dp/Vwvpa5vh6U/rb77/BtsNF0NylO0fTPzKn+tQFMATPoblKdo+mfmVP9ah0NylO0fTPzKn+tQFMATPoblKdo+mfmVP9ah0NylO0fTPzKn+tQFMATPoblKdo+mfmVP8AWodDcpTtH0z8yp/rUBTAEz6G5SnaPpn5lT/WodDcpTtH0z8yp/rUBTAEz6G5SnaPpn5lT/WodDcpTtH0z8yp/rUA5Q3+oNX9eML/APMtaKYI/kGnOuOaM1lTluo2CqqYl7T3MluuxKYxIdKBYR5qW0OOWLiUcaoyUmo0K2JR9W4sAAAAAAAAAAAAAAAAAAAAAAAAAAAAAAAAAAAAAAAAAAAAAAAAAAAAAAAAAAAAAAAAAAAAAAAAAAAAAAAAAAAAAAAAAAAAAAAAAAAAACdufzhY/wBTHv782KIJu4qR7Y2Onmm+YLCXj4+cPj4+72+rh2222+Hf9HwikAAAAAAAAAAAAAAAAAAAAAAAAAAAAAAAAAAAAAAAAAAAAAAAAAAAAAAAAAAAAAAAAAAAAAAAAAAAAAAAAAAAAAAAAAAAAAAAAAAAAAAAAAAAAAAAADo8wzKgwao6ZyCS4htbyI0Zhhlb8iXIX7hhhlBGt1xWx7JSRnsRmexEZllk6k6hyEk9F5P2WJaV1pKTaVDTm3xmkpauH5t9/jIj6gFFATvvh6l9gOReWqn95Dvh6l9gOReWqn95AUQBO++HqX2A5F5aqf3kO+HqX2A5F5aqf3kBPHOUJomXKMbhq1LoylogLxA4hyP9IK4O1Qx3JzO3Hx84Xj4eHh8Pfg8Iehx4sVycbRfLLLlZnoFdc6VNzXRvS1V12+3NFN/5Tw7dz+Dttvznh77j0f3w9S+wHIvLVT+8gKIAnffD1L7Aci8tVP7yHfD1L7Aci8tVP7yAogCd98PUvsByLy1U/vI/itSdQ46Telcn7LFNJ61FGtKh1zb4ySctPF82+/xEZ9QCigOjw/MqDOajpnH5Li20PLjSWH2VsSIkhHu2H2VkS2nE7lulREexkZbkZGfeAAAAAAAAAAAAAAAAAAAAAAAAAAAAAAAAAAAAAAAAAAAAAAAAAAAAAAAAAAAAAAAAAAAAAAAAAAAAAAAAAAAAAAAAAAAAAAAAAAAAAJ3Pit2uvlSqb90bx/F5UqG2ZbpRIlSW2lvbfhk2yaEq8ZJedLxKPfSzs6xaszKq0/nWZtX13EkzoEU47ppeZYNBOnzpJ5tKi40mSFKJSiJRpIySoy6BHv8ADv1Rb/vix1equmWWZbkVbleI2VZCsqeOSITsw1+A4p0kun4KD6jYW8RbHvxcO/VuZBuMSzLG85rHbnFbIp0JmXIgqdJpxsueYcU24kiWkjMiUkyJRbpUXWkzIyMd0PJ+pnJKza8lUR4jZVx19NKlHFhOWESIuChx1Km5Ud+TUWC25JILh4mSYWWxGTx/B3FxySMdrG7mdiejulduqzyRNrJpLSKmDBtohQ0tJalutRHSNTcg3JCUqYdRx9fgqVxJD0wA8q4povrBUZ9jeU32lGAWK8csokKNkJ5CtVzHqW2FsKbYaXB2SzxPLd4O6iUpCEEaeMth2mWcm7M7zlC2+qsKHi5QLCA5GamvSWUTm+KvONzZpRW90mnjPfbpHmdj4jjqWW5h6WAeTbPk88ovNNM5GJ6i5Nj91MZbNiExPtIsxBtbxzNCnkUbDHArmVESHYMjh8alPJVzaFLyW85pqzGozuH6ezJVTCOPEnOWCu68UdTLdfN6q5uvaYU46lxKVk01AQnmkESVIIkkHrIB5DY5O+qGU2Nv7LNHtM6A83iSU5BdwLlNlNdccsGZKDlx36xDUpTLRONttuqkM8SUkojbM9+3peT5rBpZSpxXTSnwa9rO6IzqXLW7VSLZRGt3prSUsQapcfw0OpQom0NIQoj4UqLYB6lHTVWTN2t3Z0SKS5iuVRpS7IlQVtRneLrTzLp+C9unrM0Grh8S+FXgjzlC0T1fz5F0WXx6HHmlzFOuwItjJktyZjVo9MYUl9cZk1xkolGe/NkanWk9RJSe++0o0ZzDEMyi5lldzWzJDNRNpuaiOumhiMcptyKhslILfwUuLcUex845sW6Up2DSQIrdVr5bKhfc28gxeLKmNkWyVyIslxpD234ZtvEhSvGaWWi8SS2ogwK/f4a+qLn98QN8AAAAAAAAAAAAAAAAAAAAAAAAAAAAAAAAAAAAAAAAAAAAAAAAAAAAAAAAAAAAAAAAAzmoWZt6f4lMypyplWfczkdlEOMtCHHnHn22UJJTikpLwnE7mZkW240Ynev3vYS/pWm+04oB3wdT+wS78uVnpw74Op/YJd+XKz04ogAJ33wdT+wS78uVnpw74Op/YJd+XKz04ogAJ33wdT+wS78uVnpw74Op/YJd+XKz04ogAJ33wdT+wS78uVnpw74Op/YJd+XKz04ogAJ33wdT+wS78uVnpw74Op/YJd+XKz04ogAJ33wdT+wS78uVnpw74Op/YJd+XKz04ogAJ33wdT+wS78uVnpw74Op/YJd+XKz04ogAJ33wdT+wS78uVnpw74Op/YJd+XKz04ogAJ33wdT+wS78uVnpw74Op/YJd+XKz04ogAJ33wdT+wS78uVnpw74Op/YJd+XKz04ogAJHh97kd5rlNcyPCJmNraxRlLTcmbGkG8RzF7qI2FqItvF17eMd5rZnk/TzEo9zAvseou6LBqG9bX7K3YFe0tKzVIeSh1ozQjhJR7uITsR7qQXhF+ke/w79UW/wC+LGxsqeut1Q12EfnTgSUzI58ak8DySURK6jLfqUrqPcuvxAPKF1yvtQcfyvDKOXAxWRDuGWjObz0CBHyQ1y3I/PVqpts0+hHAht5KGY9gpZPtoI91JUrvsR5TebXNRInol4fkhybheOV8ijivcwi0fQ0qG26aZL33NO75Omo2ni4E8bLCj4B6eGB1Fy3RXGMhxl7VLUDHKC0bfdeoY1xkKIBSHjSTaltsOOpRIWknCSRmlRoNfg7GrrCSZZyhdRcQOxzlV5g9xhbUi1jxo0SuUzJSUBTaXHFWDtgUZRGfPF4TbSUGRcThElRn9azlE5hmk9rNMTyTFarAegbO3fYsqTpCY2cNTTa+GwgWi4bzZqeJfG0S0kSFINXFxKRZ06u6TrVeIRqfiSlYzH7ruyK6jGdYx1/dZPh/cEeCrwl7F1H19Q45626MJbpnVauYWSMiYdlU6jv4m1iy0Rm45HPnPuyEkR8SkbkWx77AILp1r5rtqdSU1lR5Np7FTIylNDIkOY4U5uWw5F7obfYOvvpDCOHgdbPaS9xGZGfNmlSDoeq2seR4VqBExauyTD4JHEgymKy0iPOT8geeffbXDgqTIbSh0ktEoj4HjLr3Rw+EW0l66aJQMb9mM7WPB41B3auu6VdyGIiH3WnfiY543ODnS2PdG/EWx9Q5beV6XMW9jkKMxx9M5L0OhnPdLNfc31buRoqy4+FDqikkpKNiWonU7bkaQHmabyk8qz5/PsVTmONxscr+aI7+vUmCdTGKa0zLOS9EtXpLfNNOkpa3EVryCQoyJvfja5ePa5XODYxUUeP6iYdNhsplPVtnbSbOzPPHSfMu5qd+ZYuOkszPhLd+ZtxJ4EmgiMemm9RNP3WIcprOseWzYtSJENxNmwaZDUf+XW2fFstLf9My3JPw7DulToSZbdeqYwUp5pbzbBuFzi20mklLJPjNJGtBGZdRcRfGQDzbdcobUXSSJZZNq3aYhcUkXKzxxDNVAYoHm0lDU/zi5NpblFNRqU0nZS2/cr241LSlNl0x1B740K0uGI3MQWZbKISVI4XTZchx3y5zZSkqVxPKLdB8JkRGRmXhHtAAebeUtqZqjpPlb2W6R6PzNRbtnFHEdGxpJNmw33UR8+pBbuPJIySXNtEaz4vgIjMs5yO+UXrjq3pCvNsuwGZk1zJuZzM1uDJroDNQttZJKATLjqXkmhBIWZu7rM3d9zLYXdfv8NfVFz++IG6aYYYNxTLLbZur5xw0pIuNWxFxHt4z2Ii3+QgE/wC+Dqf2CXflys9OHfB1P7BLvy5WenFEABO++Dqf2CXflys9OHfB1P7BLvy5WenFEABO++Dqf2CXflys9OOnzHU/VyrxO1sarR1VZYssF3C9c20VyEqSpaUNodKM6p0kmpREakpPbx7H4jrg4VxT119XuVdtH5+K6pC1t8ak7mhZLT1pMj6lJI/H8ACT9+HK8rtU4thLNPW2c8ozDT9tGclJq5PNzFykSGWnmzfUhUTmyQl1stzNXGZERHutPb7IbaHZVWWqrnbqgndHTJVcytiLLVzLTqXm2XFrWyRpeTu2bjnCZGXGsus81f4NpXYZ9LxWZi8pm5zWE7kEuzgTn4TxLrzjxUuNvsOodjv8ExKScZNKjSSyUrr2PcYridFhVM1Q49FdaitqUtS5Ep2VIfcV7p1595S3XnFH1qccUpaj8ZmA7gAAAAAAAAAAAAAAAAAAAAAAAAAAAAAAAAAAAAAAAAAAAAAAAAAATvX73sJf0rTfacUUQTvX73sJf0rTfacUBRAAAAAAAAAAAAAAAAAAAAAAAAAAAAAAAAAGAJSUa9KQpREp3ECNBGfWokzT4tvj240b/FxF8Y34xmoOGXV3LqMuwy0jV2U46b6Ya5aFLizIrxI7ohSCT4RNuG0yrjTupDjLS9lklTa+tTn2qrCSanaDWTr6epa4F/XuxzP+ot5xpxSflU2g/kIBRRiM+019nBWpdNdxdJ0Eij/5NznN864lfO+6Lfbh24erffxkOF3w9S+wHIvLVT+8h3w9S+wHIvLVT+8gMFV8n7OLSl4L3L6evfrVyXsdjox5Lhwn12SJvHNUUnhmtmuOwZIbKOokmviWazJaO3m6J5HHxDN3JN/FvMkyykmxZKYlcUKK7Le4j4mWnXnSaQe6S4FuL691KWfEY03fD1L7Aci8tVP7yHfD1L7Aci8tVP7yAxOV8nnULL6h9iZq1XwbCzmJXaO1dRYVrT0NDSWmmWu4rNmQ26SU+EtUhbThnspnhShKOJH5JLbNnXTV5+45GhnCfeh9GbNvy4nNpjyP5U+FSWykJ269+eQf+zIla3vz5r7J/Yh3h8l6T7g6S5vpar4eY5zm9+Lunbfi+DxjtO+HqX2A5F5aqf3kBOYnJDREamITqG65xVT9XXkutMkwEyIbrMlSOF4lfdXnCfURKI/ASkj8Si2OkGi+S6dyIk7KNRnsmkxY82MgllYLQhD646vBcsJ02SW3c57kp9Sd1+CSCLY+174epfYDkXlqp/eQ74epfYDkXlqp/eQFEATvvh6l9gOReWqn95H8Vn2qr6Tag6DWTT6upC59/XtRyP8ArrZcdcSn5UtrP5DAfY1JXr0lCVEamsQM1kR9aSVNLh3+LfgXt8fCfxDfjGafYZdUku3y7M7SNY5TkRsJmLiIUiLDiskvueFHJXhG22bryuNWyluPOr2QSkto2YAAAAAAAAAACd2384XFfqZkH9+qRRBO7b+cLiv1MyD+/VIogAAAAAAAAAAAAAAAAAAAAAAAAAAAAAAAAAAAAAAAAAAAAAAAAAAAJ3r972Ev6VpvtOKKIJ3r972Ev6VpvtOKAogAAAAAAAAAAAAAAAAAAAAAAAAAAAAAAAAAAAAAAAAAACJ+yqb7dP2E9zsdx967pXndj5znOlua4fHtw7dfi33+EWweDvbUYv8A/eKex72FZR7I/Y73veh+5m+e57pXuru7j4+b7k7k+78XFxf0eH4R7xAAAAAAAAAAAAAAAAAAAAATu2/nC4r9TMg/v1SKIJ3bfzhcV+pmQf36pFEAAAAAAAAAAAAAAAAAAAAAAAAAAAAAAAAAAAAAAAAAAAAAAAAAAABO9fvewl/StN9pxRRBO9fvewl/StN9pxQFEAAAAAAAAAAAAAAAAAAAAAAAAAAAAAAAfORJjxGFyZb7bLLZcS3HFElKS+MzPqIYSbr1pDEkrgRc4hXM1o9lw6Jty3kpP4jZhpdWR/Jw7gN+AnPfSyu26sR0Wy2Yg/cyrU41TH/Sl9zukv0MGHNcoK7/AJSXgmJNK8aWmpV28RfItRxEJV86FEXxGAow4drcVFFDVYXdrDr4qPdPyn0tNp+dSjIiGF70tza9eY6w5vapV7qPBltU7JfIk4TbT5F87yj+Ucyq0M0iqJibNrT+ol2CPcz7Jnu+YX/aJBrd/wDmAcVev+lb61M47fyMpdIzTwYzXSbcuIvgNcVtxCflNSiIvhMh+e+JqPb9WK6I2yEn7iRkdrFrWVfLwtHIfSX9pkj+QURCENoS22gkpSRElJFsREXwEP0A85d4DUHv9e2b6L0+9mHQPsf7h4pfM8zznFz3dfBx89w/cuLmdub6thR++JqPUdWVaI2y0l7uRjlrFsmU/LwunHfUX9lkz+QUYAE7Rr/pWwtLORX8jFnVGSeDJq6TUFxfES5TbaFfOlRkfwGY3FVcVF7DTYUlrDsIq/cvxX0utq+ZSTMjHKWhDiFNuIJSVEZKSZbkZH8BjD2uhmkVvMVZu6f1ESwX7qfWs9wTD/7RHNDv/wAwDdAJz3pbmq68O1hzeqSn3MedLauGT+RRzW3XzL5nkn8oc1ygqT+Tl4JlrSfEl1qVSPGXyrSctClfMhJH8RAKMAnPfSyup6su0Wy2GgvdSqo41tH/AEJYc7pP9LBD7wtetIZclECVnEKmmunsiHetuVElR/ETMxLSzP5OHcBvwHzjyY8thEmI+28y4XEhxtRKSovjIy6jH0AAAAAAABO7b+cLiv1MyD+/VIogndt/OFxX6mZB/fqkUQAAAAAAAAAAAAAAAAAAAAAAAAAAAAAAAAAAAAAAAAAAAAAAAAAAAE71+97CX9K032nFFEE71+97CX9K032nFAUQAAAAAAAAAAAAAABlsm1T01wx3ubK89oKqSZ7JjSrBpD6z+JLRq41H8hEZgNSAnPftq7LwcNwTOcmUfUlUSichMrP+q/POOyovlSsy+Uc2VmWQQ8MssrzEqPTlmAZuLk38xqVHYjkSfur6m3mm2/CMy250y6vH1gNyP4ZkRbmexEJjWYvnua18a6k6/m/Vz2kvx3cPqYcWNJZUW6VIdfOWs0mRkZKQ4W/wGOV3gdNJnhZTXWWWLP3RZLbSrRpX/UPuKZSXyJQRfIA7C71r0mx+YdbZahUh2Bb/wCgRpSZMw/mjtcTp/oSOu78Eu06sN0nzu7JXuXnq1NSz85nYLYXw/KlCj+IjG0qKHHMVgHDoKWtp4TZcRtQ4zcdpJEXj2QREWxD8KyrF0KqUrySrSd+e1SRzGyOwPmzc2Y6/uvgEa/A38EjPxdYDHd28oG7/wCS0eD4m0r3LkyZJuXi+VTLSYyCP5CeV84d7PN7fry3W3JHUn7qLSRYtXHP5lE25JL9D4ow48CwgWsNqxq50eZEkJ42n47qXG3E/GlSTMjL5SAYWPoFpIl9Eu2xBvIZTZ8SZGRyn7l1KvwiVMW6aT+bbb4Bu4UGDWxkQq6GxFjtFshphskISXxEkuoh8LS8paTuXpq4hQO7pKIcXuqQhrn5C9+BpHEZcS1bHsktzPY9iHOAAAAAAH8MyItzPYiAf0Bwqa7pcirmrjH7eFZwH+LmpUOQh9lzhUaVcK0GaT2URkex9RkZDmgAAAAAAAAAAA+E2DBsoy4VjDYlR3S2W0+2S0KL4jSfUY+4AJ7I0C0kU+uXU4g3j0lw+JUjHJT9M6pX4RqhraNR/Pvv8I+fezzeo68S1tyRpJe5i3cWLaRy+dRttyT/AEvijDju2EBiZHrn50duXKStbDC3Uk46lG3GaEme6iTxJ3MvFxFv4wGB7t5QNJ/yqjwfLGk+6chzJNM8fypZdTJQZ/IbyfnDvwS6vqzLSfO6Qk+6eZrU2zPzkdet9fD8qkJP4yIb6HYQLFLq6+dHkpYeXHdNl1KyQ6g+FaFbH1KSZGRkfWR+McgBiqTWvSbIJhVtbqFSFYH/AP0EmUmNML547vC6X6UjaEZGW5HuRjosuZwWVDjV+etUL0WwkohxmLdLKm5Ehe/C0hLvUtatj2SW5nt4hmO8DppDPjxaussTWXuSxq2lVbSf+oYcSyovkUgy+QB/bb+cLiv1MyD+/VIogj1ppVl+OX8fUSFrxJSqkq5kLjyyqiS4rER5xh141rjnEXsRxWz41uGZEStzPcbC3t9S6GFBdg4zXZitZLOYqBJKsWjbh4OaafW4hzi3XvxPI22T7rc9g2ICc9+2rrfBzLBM5xlRdSlS6Jyayg/6z8A5DKS+VSyL5R3uM6p6a5m73Nime0FrJI9lRotg0t9B/EpolcaT+QyIwGpAAAAAAAAAAAAAAAAAAAAAAAAAAAAAAAAAAAAAAAAAAAAAAATvX73sJf0rTfacUUQTvX73sJf0rTfacUBRAAAAR/DLnXnO6NWTV2WYDXRXp8+OxGexia+4htiW6wnicKwQSlGTRGZklJbn4hYBO9AfewifStz9pygDonlC9oGnfmfO9Zh0Tyhe0DTvzPnesxRAAeGeUfp3y7b7XnB7LQ7Ma6DYRatxNzdRoL9dRJim8fNMyWX5UlMpwlG6rhQ1xpStJ9ZGXDdcixzlbvFE7hz/AA92MiJHRLbqoh1ctb5NJJ9SHZTU5oyU5xqQRtI2SaUme5Go7iADzp0BAZ69XdMtXbky/lH37ld1AX8e0SA+RH+mIR/F8Q2WD51yasceTTYhMxHEpbpbJr3oKKSUv4/uDyGnDP4/B+cVkcWyq6y4iLgW9dFnRXPdsSWUutq+dKiMjAfdp1p9tLzLiXG1kSkrSe5KI/EZGXjEr5QOEZTmtXjLGMZtlFAcbJK1ySVHEgvmpvuhBm84UqK/sTW3GRlsnf3ZKLqHaO6AaTtuKkUOMrxh9Rmo3cZnSKYzUfjUZQ1tpVv8PERkfw7jt6zE8nx2odraPPJU91bpuNSMjjFPUyk0kRNpNpTClJIyM/DUpW6j8LbYiCV56xlDWpcaK5J1IkXLDtWjFpFUc9NO+wk093rsu5iTXEs/u3EUtKT4eDuciXsNZpFgtrFfeznIslzVy4fm28Z2DZ28lcNUU57px+GG4fNN8DaUcDjaUrUhXhKWXDt2b1prrTK+64liGSsJ905Btn62Qf8AZYeadbP9L5fpHy78p1nVmel+eY/t7pwqjpVkvl465cjZPyqJOxePbrAcvW5w2tN7Fx41lXpfhnamlXDtW90td2GZ/g8xzvF/V4hltWMigY1qTprPhx8+eIpjzUpOP1d3Oq+4HIzyUnJbhNribk/3PwqdLjQW6iNKOIxsaPWDSbLH1VVRn9BKmKLhXXuTG25REfVsqO4ZOFv8RpGthQodbDYr66IzFixm0ssMMtkhtptJbJSlJdSSIiIiIuogEIgYTlM3OUXdraZ+tu6yK9ppzPTlkxDj0/NvqjqaZbcS2wfOIbNuSkid8Mkpc4eFJdpyWscpcPwh3FoUbOmLSqWmJaoyV+7eZJ9BqLeG5YqU0tkyLfiimbZ7lv1i0gAkPKBv42MuYZdExn70qHfxnjRi9ZdT21RCcSUkpTFchaHEc2Z7JfSot9zQXEQrSXedjk8ylXho4kktBpV1luW6VbGR/Ie36B9AASXRzItfLnILqPq3i/RdWwgjrXegYUDnVcZltxx72xUvwdj8Jpn499/BLMcqrG5+RO4zHsseRcYospbFg2rF5OR9zSlKYNh9FewhfG8SEyENvulzTC1k4slbEhfoEAEjxp6ZjL+kON5lY5Z7IJFLIhLbbkIXDekNRGlOnP2UfG6RIPgUncuI19fWQpt+uG3R2DliU84qYrpv9HpfVJ4OE+Lmij/djc234ea8Pfbh69h/eg6Xpn2R9Dwulu5u4+7+50d0dz8XFzXObcXBxeFw77b9e245wCXcnDIVXemUWI9HzJuRVSpUNR5XWWkSctsn1qYM12TaX5Bcypr7oZr69yNXESiLsc5VnB5lj6W2pZYSSiOxXTOKOwVN4y5gnkkXEUIv6ZsmbhqNHGRMk7vQAAfCc481CkOx46n3UNLUhpK+E3FER7JJXwbn1bjyJpnWawWNNeQ5Nrn8eBb2uOSUcUbIIkiBxzlpsYzbttKkSVJQ0lCVutcywpJktttG5rP2EACK3GkUp7IsbwJnMtSixZmpuH3pTOU2CZCZByIioyHZ6XCfWaCN3mydcUpSUqSo1p4iPJ5VF1HVyjqMqaVlrNbVuwIM1JRr16JZV62FE7KU+iUioaWTiuBSO5XJG6ec4kJMjT6WH4daafaWw+2lxtxJoWhZEaVJMtjIyPxkAimNFJlY7kqc/kZLZ0uIxncccaYKbNftOadNa3zajcTsta2u5kGRJUozJ9BkfEsj+OiWaMYVycsKUzpzm61V3R+POU7GLSok2IpbyGOcOLJQysozRLJa3EkaUtoUZb8OwslBj1BilNExzFqOvpqmA2TMSBXxkR48dsv6LbaCJKC6z6iIiHYAJPMyiJiWvdg3b0mUONZDR1EODLr8ZsZ8Pnm5E3jS7JjMOMx+EnWzM3loLZW++xGYjMGFrW7faoTZmeZk1eu11w2xTxMTyBphB89tBchz5Ep6rWtDJIMkwmGlrNZ84RqSsh6+AB5V1UVlunOOXGNVa81t62TlMMosd+/yA506O5XG7IbYnQGpVkhCX0mvaM2pKOFSDJtri4fhEwrEX6zSHPbW91ayGDChzKuZPq7bLnJaZiloNPdMZpZSkpJ1t5txb7aepKEukSSSlPpXMcFwjUOnPHs/w6jyaqNxL3cNxXszY/OJ9yvm3UqTxFuex7bluOfS0lLjVRDx/HKiFVVdeymNDhQo6GI8dpJbJbbbQRJQki6iIiIiARPDcOyOi1Di5SwrLEJs8vv486K7LllXIrlpfcZcOLuTBGp1DakyFINw+M0kvhUSRQ9LrettG8oj18zJJCq3Jp8SSd24lam3iUlZojmkzLuYiWnmy8ZJ6jIbUyIy2MtyMcOmpKXHa5qnx+ohVkBji5qLDjoYZb4lGpXChBEkt1GZnsXWZmYCXcoG/jYy5hl0TGfvSod/GeNGL1l1PbVEJxJSSlMVyFocRzZnsl9Ki33NBcRDkWtHr1N1jq7+hzfHYuCdGPJegScdlLfJanGDJC1dINkbxkThpd7n2bTxJUlRq3Gkv9Y9KsXldHXeoVCxP6yKCmah2Wr+ywgzcV+hJjq+/Kdn1YZpfnmQb+5dOo6LZP5eOxXH3T8qSVuXi36gHB0toNb6i9y+Tq5mmNW9HKnrcrmIdG/EUTXMMlxpW7YSEts7pcI2jQR8XEvi2VwjvdGGnGdOKtsnTchEuT0WZ+Mq7uhzuMt/hIo/NbGfWZbb9Y62Q7rPlsR+tnYLhNLWTG1Mut2ti7auONqLZSXIzbLbRkZHsZc+oj6x2tphOWZFEhxbjUmxrExyWTyMaiN16JW/DsS1Pc+6gk7HtzTiPdHvxbJ2DYuutMNqeecS22gjUpaj2JJF4zMz8QlOcZ1yasjeVTZfMxHLZbRbKr2YKLuUj4vuDKHXCP4vB+Yds1oBpO44mRfYyvJ30mSidyadIuTJReJRFMW4lO3wcJERfBsNzW1dZTxEQKiuiwYrfuGIzKWm0/MlJERAPP3QEB7r0i0y1dpjP+TfYuV0sBHxbxJ75kX6Ihn8fxDW6bUfKVgZFHfz3MMdkY2XHz0N9BTbNZcCiRtJYYhstqJfCavuDhGRKSR7mSirwAAAAAAAAAAAAAAAAAAAAAAAAAAAAAAAAAAAAAAAAAAAAAJ3r972Ev6VpvtOKKIJ3r972Ev6VpvtOKAogAAAJ3oD72ET6VuftOUKIJ3oD72ET6VuftOUAogAAAAAAAAAAAAAAAA6u/xXF8ri9wZTjdXcRusuZsIbchH/AMKyMhje8Hp5C8LFEXWJrL3BY9dSoDCf+zNudzn8ymzIUYAHmDlPaqZfyRNKZWqL+r7l8y1MjQYdTkdPGfcmOurIjbbdi9yqI0tk45uriPZs99xScd1D1asqCtyeNgWOZbTWsRqdCn45f827JYcQS0LKPLabQndJkZf6Qfj+AZPljaHacaq4I3k2fUz1s7iqT6OiuS3UxEuSH2ELdWylRJccJCVJSaiPYnF/DsZVfS7TLFNHsIgad4Q1MZo6pT3cTEqY5JUw246twmkrcM1c2jj4UEZ9SUpLr8Zh0nfwoa/wcwxDNMXUXulWFA8+wj+1JiE8wn5zcIhosX1K08zYzRiGc0Ny4W5Kag2DTziDLxkpCVGpJl8JGRGQ0gzuUadYBmxEWY4RQ3hltwqsK5mQpO3iNJrSZpMvgMusvgAaIBOe8bjVf4WIZNmOLKL3Kay/kLjo/sxZKnY6f0N/OHsY1upeul1Tp71pP+yyKgSl5f8A18NxlCT+XmFfMAowCc+zTWCm6si0abtEJ8buMX7EkzL8Lm5qYpl/ZJSj+LiDv9YHB8HLGcgxRZe6VfUUuIwn/tRoOOf6HT2/4AKMA6jHcwxLMI3duJZTUXcfbfna6c1JRt8fE2oyHbgAAAAA6jIswxLD43duW5TUUkfbfnbGc1GRt8fE4oiGQ7/WBzvBxNnIMrWfuVUNFLlsK/7USCjl+l0t/wDiAowCc+zTWC56sd0abq0K8TuT37EYyL8Lm4SZRn/ZNST+PhD2Ma3XXXdap09E0r/ZY7QJU8j/AK+Y48hR/LzCfmAUYZvKNStPMJMkZfnNDTOHsSWp1g0y4sz8RJQpRKUZ/AREZmM73jcasPCy/JsxylR+6TZ38hEdf9qLGU1HV+lv5hpMX06wDCSMsOwihozPfiVX1zMdSt/GajQkjUZ/CZ9Z/CAzffwobDwcPxDNMoUfuVV9A8wwv+zJlkywr5ycMg9keuN11U+mdDj7Sv8AbX99zr6P+zxGnEK//wBgv0ijAAnPsH1buevJdaVV6Fe6Zxehjwy2/BNyYctXyGpPCZ+MuH4HeD08m+FlaLrLFn7sshupU9hX/ZnHO5y+ZLZEKMADqqDFcXxSJ3Bi2N1dNG6i5mvhtx2//hQREO1AAAAAAAAAAAAAAAAAAAAAAAAAAAAAAAAAAAAAAAAAAAAAAAAAAAAAAAAE71+97CX9K032nFFEE71+97CX9K032nFAUQAAAE70B97CJ9K3P2nKFEE70B97CJ9K3P2nKAUQAAAAAAAAAAAAAAAAAAAE75QfvQX/AM0X+8tCiCd8oP3oMg+aN/eWhRAAAAAAAAAAAGRyLSHS7LJPd+Q6f0M2aR7pmqgtplIP40vJInEn8pKIdP3l2a3rw3UnO8d260tt3R2TJfITdimQlKfkTw/JsKMACLf/AI4d8Tvb99al7i6F6X6R9ixdIb8/zXN8XdHMfLxcx+gaPvLs2XXmWpOd5Fv1qbcujrWT+Q265MdKk/Iri+Xcfr/nC/8Acz/1wogDI47pDpdicnu/HtP6GFNM91TUwW1Sln8anlEbij+U1GNcAAAAAAAAAAAAAAAAAAAAAAAAAAAAAAAAAAAAAAAAAAAAAAAAAAAAAAAAAAAAAAAAAAAAAAAAAnev3vYS/pWm+04oognev3vYS/pWm+04oCiAAAAnegPvYRPpW5+05QognegPvYRPpW5+05QCiAAAAAAAAAAAAAAAAAAAAnfKD96DIP7Mb+8tCiDBa7QZtlpTewq6G/KkOpj8DLDZrWraQ2Z7JLrPqIz/AEDegAAAAAAAAAAAx+fajRdOlw5t9XLOnmJcYTMZUpbhTj25iNzRI6zePiQhXEW7nAjYzWkbAdZkOPwslhMwZzrzbbE2LOSbSiIzcYeQ8gj3I/BNSCI/h232MvGAgcfVmarlJx6WyPTiru+i41JJpp2oZNWzhOITLWuHXdH8crhNRoSrn2yVwL8FO24oGkGsFjqbZXcCfUY1AVVKRxRqzJ02M+CazPhYs4qmGVwZPDsZtfdU9Si5w9iNX4k4ik9X5ZVOr2aVD9iw1eT8eiR6tVdKbQSIxmp12EuUg1E2gjJt9BltunhPrHdYbpevFbxy/tNQcoyuQiOuFX9NnCM6+MtaVKZbXHjtOOkZtt7rkKec8Aj49zUag3AAAAAAAAAAAAAAAAAAAAAAAAAAAAAAAAAAAAAAAAAAAAAAAAAAAAAAAAAAAAAAAAAAAAAAAAAAJ3r972Ev6VpvtOKKIJ3r972Ev6VpvtOKAogAAAJ3oD72ET6VuftOUKIJ3oD72ET6VuftOUAogAAAAAAAAAAAAAAAAAAAPLNvhmpVFBbqcRob15vJcoyCzaW2akKqJxlYkh01K2Nll9K2TQvckpc2Pq50jLc6PUuDxM1cm6TaZ2eG1CIElrIkyMak0aJ1kbjJtLUh9tvu14kpf3lIJxJkrbnVb7Dba03drjumV3c0k1cSbGSybTyNuJG77aT23+QzL9I24AAAAAAAAAAAADIZPq5pviE4qi8y2EVqojNFXE4plgsvjTFYJbyvGXiQfjIBJ/bCaJ+2M7j75dH3X3B7EO5Of/0npjpXmO5OZ25zj5z4eHh4fD34PCHoceKe8dj/ALc324HeWznoroXmeHo6PznTH8l3d3Hz/dPB3N4O3M8fOeHtv1j1PjGrmm+XzjqKPLYR2qSI11cvih2CC+NUV8kPJ8R+NBeIwGvAAAAAAAAAAAAAAAAAAAAAAAAAAAAAAAAAAAAAAAAAAAAAAAAAAAAAAAAAAAAAAAAAAAAAAAAABO9fvewl/StN9pxRRBO9fvewl/StN9pxQFEAAABO9AfewifStz9pyhRBO9AfewifStz9pygFEAAAAAAAAAAAAAAAAAAABO+UJ7z2Rf8ARx/7w2KIMVrNj91lOmN/R45CTMspDCFRo5upa55aHEr4ONRklJnwmRGZkW59ZkOB3wdT+wS78uVnpwFEASjINZsrxOuXb5TpJJpoLfu5Vhk1RHaT861yCIv+Iz9BylcszGR3NhnJ6zG2QZ7FO7pisV5/1kynFk24nbr3bNZ/ERn1ALuPw660w0t55xLbbaTUtaj2SlJdZmZn4iE67h14yfrn3WM4NEV/sqxldvO2+DZ99LTDatvGXMOlv1EZkW5/trQfBZjqJWbLtc4lJUSuPJpypjBKI9yUmJ4MRB79e6GUn4viLYP3L1208OS5XYxOmZfPaVwLi4zDcsuBf4LjzRGyyf8A0riCHy6b1yyfqpcOo8Lir8UnIJfSM1JH8cOIomt/+1H1/AKDEhxK+M3CgRWY0dlPA2yygkIQn4iSXURfMPsAm/ecdvPD1G1GynJyV1qhIl9FwC/q8xDJtTiP6ry3fn8W2vxjDcSwqCdZh+MVVJFM91M18RthKj+NRIIuI/H1n19ZjuQAB02T4biWawSrMwxiqu4pHulmwiNvpSfxpJZHwn4usuvqIdyACb95x2j8PTnUbKcYJPWmEuX0pAP+rzEwnFNo/qsra+fx7/3pvXLGOq6w6jzSKjxycfl9HTVEXxQ5aja3/wC1F1/AKOACexNdtPCkt12TzpmIT3VcCIuTQ3K3jX+C286RMvH/ANE4shv2nWn2kPMuJcbcSSkLSe6VJPrIyMvGQ/EuHEsIzkKfFZkx3k8DjLyCWhafiNJ9Rl84wDug+CwnVysJVa4PKWo1ceMzlQ2DUZ7mpUTwoiz3691sqPx/Ge4UUBN+4deMY64F1jOcxE/7KzZXUTtvh3fYS6w4rbxFzDRb9RmRHuX979dfS/c9RsMyfDlJ6lSZkHuuB8/dcQ3Wm0/K6bZ/GRH1AKOA6zH8mxvLK5Fvi2QVtzBc9xKr5bchpXzLQZkf/EdmAAAAAAAAAAAAAAAAAAAAAAAAAAAAAAAAAAAAAAAAAAAAAAAAAAAAAAAAAAAAACd6/e9hL+lab7TiiiCd6/e9hL+lab7TigKIAAACd6A+9hE+lbn7TlCiCd6A+9hE+lbn7TlAKIAAAAAAAAAAAAAAAjmpequq2LZO/SU+ly42PoSg0Zc+h+0YPdCTV/7PgpVI2So1JNTim0+DuRmR7kFjGXyvU/T7B3m4mU5dWwJj38jCU8S5b/w7Nx0buuH8iUmMBidPRastOP2nKAsMwS31SazH56KiKwe/WlxqKopaevqNDz6urqMus96Pimn+D4Ky4zh2J1VOT3W8uJFQ248fjM3FkXE4fyqMzAZ1rUfL8mYcXgGl1otBbc1MydaqSO4R79ZNqbclFttuZKjp8ZbH49vl7CdWMk8LMdVSqIy/HAxOvRGPb8FcuTzzqv7TaWD+br3+mvcnIq/TC1tMcsYsR2AbUqRzxSyN5hCyNbTbkSTHdZWrYiJwlqIuvdCyMyGT1YLUu/1jwnCa+nhniTjMmzkyI2dWdLNccYWwRmtEONu4lsnd0sqf5t41nzhJ4C3DdY/ozprjlii7jYuzPuEeK2tnXLGeR/DtJkqW6nc+vYlEXi6uohtR/FHwkZ7Gexb7F4xEJedZrW6LxM3xqeufl2Zz2nq2I5XHZtE48e6YbMdybCbQSGGzLiVJaTxIWtRqUoyUFwAQLHNVtZ9RKfD2cRbxClt7uhsbOc5cQHpTSZESW0xzSG40vhQlzjXuon3ib6jSb5F4Wpqsp1auc6vW2ZWHxMYxa0bgWEZ2FKcmyG1QGH1uNSEukhBoW8rZJsq5xOxbtmW6gqgDzhgOvOq17Ey5+8pq8m6WHX5HWPu0yIBzKR55zjWTDVnMXxGwytaFumwviMiVHLbr0+eZtnz2GQs4x7JI1TXuZVAjRkRoLbzk6udsY8YuNx01pJLiFPL3QhKtltbKSaVcYWgBOHoSrLX9Lsm0uEtVGLsyI0Nm2lMwzdekvoWt2MhwmX1cKEkRuoUadt07GP5hCb6ZnGpNFkto3La7piHFXBcnRjZjPRj4WyS5KdS24kiPdyOTBKM+LgJRcQCkAJdpHaVWH6d2S8jyqQ1V02QWsFFhkF07JW2yie400hyXLcU4vYuFJGtZn4i3GjK+tD1Y9jRS96w8d7v5ngT/AC/dPBx8W3F7nq232+QBrgHn2JrZrPPyPNLSLpylGDUDFyzFsZDMRCUyoBOJJSnUWS5DxOONGXNHBY4SPfnVERGrjW+terOL1FhByJ/Hn7mS9VPwJVLiVnZIgxpzchfAuujyFyrBbRxlEa2VM8SV8Zttk2ojD0WA87zJ/KVtpOk8p7OcRx+wt3pxWcV7EJ/MuqKM+42SmOlEKQXNJSfNOKUpLnhGfgmgdrTZlqTVan2bEq2qZWLy80KhOI9HkOTEKXVMvJcZdN4m2GkrQrdnmnOLnDVxpPcjC5gOjzfKUYTilnlTlLa25VrBvFBqoqpMqQfiJDbaeszMz8fiItzMyIjMTLOuUpRaS4RjmXZ50NZeyc1uRl0+S00KIlBpJaSbkW06ImSRJURcbfWrbi5tsjIgG0yDRrTXI7Bd3JxdmDcL8dtUuuV08z+DeTGUh1REfXsajLx9XWY632E6sY34WHaqlbxkeKBlleiSe34KJcbmXU/2nEvn8/VtuaO2j31NAvIieFiwjNymy51p3ZK0kovDaUttXUfjQpST8ZGZbGJljE3NI+r99h+SX+Uv0dlBkyq5u6RWN8fA40SlVztalDyGEJfJCu7DJ81Gg0bkS1AO5d1Hy/GWG15/pdaIQe/OzMYWq7jtkW3WbaW25R777kSY6vEe5+LfusU1P0+zh5yJi2XVs+Yz/LQkvEiWx8OzkdezrZ/IpJD4aX2NtNx6TAupTkyRS2cypTNcMjXLbYdNCHV7f0+EiJR/CtKj+Ec/K9P8HzpltnMcTqrgmetlcuKhxxk/HxNrMuJs/lSZGA0ACMZZT0WkzTb9XygLDD0udUasyCei3ivnv1JbalKOWrr6iQy+nq6iLqLb6aaaq6rZTk7FJcaXLk4+tKzXlzCH6tgtkKNP/s+clMjZSiSklNqcT4W5mRFuYWMAAAAAAAAAAAAAAAAAAAAAAAAAAAAAAAAAAAAAAAAAAAAAAAAAAAAAE71+97CX9K032nFFEE71+97CX9K032nFAUQAAAE70B97CJ9K3P2nKFEE70B97CJ9K3P2nKAUQAAAAAAAAAAAAAAAAZjLNMdPs5dblZViFZYS2P5Catgky2D+Nt9OzrZ/KlRGM/3scxx3wtPdWrqK0n3FfkaOm4nV4i5xxSJnydck/mFHABHcwiXGRUaqHXXk90Wf1LL7bzfRbca2jmoiMuechTybW2pO+xJaN9Wyj6y8Q7fCs80MU/U4tji6XHbCpinCq6OZW9DzIcc+ElMx4r6G1pb8BBGTaeDwU/IKWOtvsbx3Kq9dRlFDXXEFz3cWfFbkNK+dCyMj/wCADshjndJMAsMds8NyPHIORY5aT12K6a7iMzoTTilk4pKGnUGXBzvE6RK4uFSz4eFJJSnqe8nW0v3TTnMcmw1SetMeDO7qgfN3HLJ1lCfgMmktn8RkfWHduvGMdU2nxnOYif8Aa1zq6eft8GzDynWHFfGfPNFv1kReIg20DHMeqlsOVdDXQ1RWnGGFR4qGzabcWS3EJ4SLhSpZEoyLqMyIz6xyI9dXw3ZT8SBHYdnOE9KW20lKn3CQlBLWZF4SuBCU7nueySLxEQwbWvGDwnUxc4at8HkqMk8OSwVRI/EZ7ElMwuKIs9+rZDyj8Xxlvv4c2HYxWp1fLZlRnk8bbzLhLQtPxpUXUZfMAxzuj+FwMfnY/gdbEwNFm4S5kjGayDFeeSbhrdQrjYWjZziWSlcPH4ajSpKtlFyMl0g0nzSjq8ZzTTPFsiqaVKUV0K3qI81mISUEguaQ8hRIPhIk7l17ENeADJd7qHHziuzWov7OqbgVSaZdNDaiFXyYyFKU0S0qYU6g2zWrh5pxsvESiURbD81mkWmOPXdrlmJYBjWO5JctuomXtXSxGLB03D3Utb3Nmbh8WyvD4iMyIzIxrwAY3F9LaGiwtzCL6VIzCLKlvzpr2QRojq5j7r5vqW42yy2x/KHuRJaSRbFsXUORlmlOl2e2NdcZ1pti2Rz6c966VbU8eY9DPiJW7K3UKU34SUn4Jl1kR/ANUADLK0r0wXlE3OF6b4srI7OMuFNuDp45zZMdSSSppx/g5xaDSREaVGZGREWw6LVzQjCdYsaPGbtsq5s3ozq3otbXyudSwSyaadYnRpEd5tPOLNKXGlEhRkpHCoiMUYAE9x/QbS+n00qdJrbFKrJseqF88zGu6uG+0b3GpznSjoZRHaMlLUaUtNIQgj2QlJERDYoxzHm1k43Q1yVplJnEooqCMpJN82T2+38oSCJBK8fD1b7dQ7EfGZNh10V2dYS2YsZlPG4884SEIT8alH1EXzgPsOPCr4Fa2tmugx4rbrrj60stJQSnVqNS1mRF1qUozMz8ZmZmYwTuvGDzXVRcHat84kpM08ONQVS4/ER7GlUw+GIg9+rZbyT8fxHt+e7deMn6oVPjODRFf7WxdXcT9vh3YZU0w2r4j550t+syPxGFHEjK85Oul1zeQ8NhY3U5ReLU9aR8QpWpFvJfUajJ59mI0txa+JSjJbqTLc1Gfwjte8nW3X3TUbMcmzJSutUedO7lgfN3HEJplafgInUuH8ZmfWNrQ43juK16KjF6Gup4LfuIsCK3HaT8yEERF/wATvH7TUNughUenOmD1TFa4+OwzOxQ044aj4jf5iMbzrzi1qWpROnHPczPfr2HP72OY5F4WoWrV1KaV7uvxxHQkTr8Zc42pcz5OqSXzCjgAzGJ6Y6fYM65KxXEKyvlv/y81DBKlvn8bj6t3XD+VSjMacAAAAAAAAAAAAAAAAAAAAAAAAAAAAAAAAAAAAAAAAAAAAAAAAAAAAAAAATvX73sJf0rTfacUUQTvX73sJf0rTfacUBRAAAATvQH3sIn0rc/acoUQTvQH3sIn0rc/acoBRAAAAAAAAAAAAAAAAAAAAAAAAAAB+XG23m1svNpW2tJpUlRbkoj8ZGXwkMBM0J07OU5ZY1Xy8RsHVca5WMzHKw3F/hONMmTLx/9K2svkFBABOOg9ccY66PM6TM4qPFGyKJ0fMURfHMiINr/APifpDvxP0XgajacZRjRJ91Nai9KwD/rc9D5xTaf6zzbX/0FHAB02MZpiGbQjscPyiqu4yT2U7AltvpQf4KuAz4T8fUexlsY7kZHJ9JNN8xnFb3uIwV2qSMkWkYlRLBsviRKZNDyPEXuVl4i+IdN3vdRsc8LBdW5r7Kfc1+VQ02jJF+Cl9CmZJGf4S3Xdj69j8RhRwEh75GtXsu73Peyxfpro3pPpL2Su9HcxzvN8XD3Lz3Hv/s+Hb4Oc+Edv3vdRsj8LOtW5rDKvdV+Kw01bJl+Cp9anpJmX4SHWtz69i8RBrsnzTEMJhFY5hlFVSRlHsl2fLbYSs/wU8ZlxH4uotzPchke/E/e+BpxpxlGSkr3M12L0VAL+tz0zm1OJ/rMtu//AFHc4xpJpvh047eixGCi1UREu0kkqXYOF8S5TxreX4z90s/GfxjXAJx0Hrjk/XeZnSYZFX442OxOkJiSP4O7JaCa/wD4n6R9oehOnRSm7LJa+Xl1g0rjRKyaY5Zm2v8ACbaeM2WT/wCibQXyCggA/LbbbLaGWW0obQkkpSktiSReIiL4CH6AAAAAAAAAAAAAAAAAAAAAAAAAAAAAAAAAAAAAAAAAAAAAAAAAAAAAAAAAAAAAAAAAAE71+97CX9K032nFFEE71+97CX9K032nFAUQAAAE70B97CJ9K3P2nKFEE70B97CJ9K3P2nKAUQAAAAAAAAAAAAAAAAAAAAAAAAAAAAAAAAAAB0ObnkLWOSZ+LzCZsIBpmIaWSOblpbPiXHWakq4EuJI08adlJMyMj6jIwzP/ADhf+5n/AK4UQeXskuNXsjyXGLmjkajx15JTP2xsYZHxM362G48x3OxIeuW91oShRrUTKlnzq3fGkmyLcN3+d1+r7TlplmQv4u9MKrZTEYppFKl02iSliSaeGyanm9xGak8UYk8JGSTV1BaQAAAAAAAAAAAAAAAAAAAAAAAAAAAAAAAAAAAAAAAAAAAAAAAAAAAAAAAAAAAAAAAAAAAAAAAAATvX73sJf0rTfacUUQTvX73sJf0rTfacUBRAAAATvQH3sIn0rc/acoUQTvQH3sIn0rc/acoBRAAAAAAAAAAAAAAAE3sdcKmJkV1jdbgua3b2Py0QJz9XUc+wh9TDT5IJfGW582+0Z9X9IBSAEz79/wCaHUvyB/mB37/zQ6l+QP8AMAUwBM+/f+aHUvyB/mB37/zQ6l+QP8wBTAEz79/5odS/IH+YHfv/ADQ6l+QP8wBTAEz79/5odS/IH+YHfv8AzQ6l+QP8wBTAEz79/wCaHUvyB/mB37/zQ6l+QP8AMAUwflaEOoU24hK0LI0qSotyMj8ZGQmvfv8AzQ6l+QP8wO/f+aHUvyB/mAOi5R9DofD0/mXOd6cacZHbY5Q2UrGa3JaqHK4u54/OLajtup4uAiQ3xpa22Ik+LqG0oMN0XtcmVqLi+KYVMyGASqhV7AgxHJscmi5tUU5KEmtHAWyTb4i2Lq2IebeWvirfKn0PsMCr9KdQIWSw3kWNBPk0KkNsSk7pUlakKNRNrbUtB7EfWaVbHwkQ3ug1jRaEaR41pVj+kOpS2KKElp+R7H9jlSlbrffVu5vutxS1dfiIyL4AHooBM+/f+aHUvyB/mB37/wA0OpfkD/MAUwBM+/f+aHUvyB/mB37/AM0OpfkD/MAUwBM+/f8Amh1L8gf5gd+/80OpfkD/ADAFMATPv3/mh1L8gf5gd+/80OpfkD/MAUwBM+/f+aHUvyB/mB37/wA0OpfkD/MAUwBM+/f+aHUvyB/mB37/AM0OpfkD/MAUwBgsU1gqcoyxvCncTymjs366RaMJuK3uZLzDDrDbpoPiPcyVJZ6v63yDegAAAAAAAAAAAAAAAAAAAAAAAAAAAAAAAAAAAAAAAAAAAAAAAAAAAnev3vYS/pWm+04oognev3vYS/pWm+04oCiAAAAnegPvYRPpW5+05QognegPvYRPpW5+05QCiAAAAAAAAAAAAAAmekP+uOsH15b+wakUwQGlzTIsbzTUqjwnF4WQZHeZ9ww4k+0VXRG2msfqFPPPSEsvrQlJGkiJDLhqWtBbERmpIX4BN7bWNzGrOHS3uC28l5pqKrIZ9K8xKraFb6uFsnnHlsSHUGe58TMdZpSXEtLZGQ/EDXeimZHLpHsSyeHBirsY6Ll+MwcOVJgmvuhhlCHlSFrJKFLI+ZJCiIyJRrJSSClgJfUa8wrzA4Gd1un+RyE3slMbH66PNqJEi7JTanEuxnWZy4pNm2hxe7r7ZkSFbkR7Ef8AbLUnIbGLhGTYsmLX1dvelTXdXcVi1z2lmpxtTaHWpBNsuNOtqJR8L6FkXgntsowp4CTNcprTF/WtWhDE9Dt+hSmFrbsq5RIlE1zxsKilJ7uSZN+FzpxuZ+DnOLqG4zHMI+GtVkubG5yLOnlDfe5zhKM2bTrhumWxmoi5vbYuvwt/g2AaEBKpmvte27zFFg2Q5Q/LkSGquNRlHU7MbZjRpC3DOS6w214MotiWst+DbfiUlB9m3qJdy9SaLGm8ds4NRbY7It0rm1rKVvvpUz9wJzuwnWHGic8NtyKaVG4nhdSaFJMKEAjGG8oOxlY7meWam6bXmFUmIyrHnbSxk1fcymY7ykE39wnPLJ0iLwlKShrfxK2H1xHlJYzqZpxMzTT6GUmaizbomITlhBmoKe8pCWuORXyJEdTezqVrNt1RpSSiMiURpAWIBH8x1jyvG9XsL0ohUuN/+3VJObYXNo7XHMLmXluIrGSZdKS4jmuJaFOJNBLbIyMl84jRRbLWWTl1pAfoqSHQITPTXTVp5xxaktxe5FLSl/c0qWuXxFwpPZpPWjcjUG+AYRrMMuyHAqjIsNpYb9vInRI1lDkLLhiEmSlqeW/OJ3U0SXtvCPc0F1K8R9bMzHUJqowrGXX8brc+yBTblnGejrlNRIzaDXKeRGbkEtSCMkMkvnjQhb7Zma+pCgpoCYTeUFh1brO1odYQ32LyTGVKjO9J1bhPETJu7dyolqnNlwoX90cjIa3Ttx7mni49ZyhquwxWVm0rTbOa6lbhwp0GVJgR1FZNSXENp5hLT61EtKnEkbbpNrMvCQS0mRmFXARvOeUxS6aYU1m+fafZJjrB2a6x+Lb2VHAdYNKOMnSckWCGH0KT1pKO664Z7p4CUlRFsGdV8fkSFRI9fZuOqlV0eMjmmyOWia2TjT7e6y+5pSTpr4uFRcw54J7FxBtAE9o9Sr22uM9pbHEW6dzEm2XoanJ5SVzGnWXFpW6hCSSyfE2rwEuObpNJmpKjNCehd1F1Fx3QSr1CyFEG6vZsaJNlyKOjJqJDYfNKzcVEk2KVrS22rhUaZBrUfhJbP3ACwAMJnt9m+PZXhR01lRlQ29t0Vaw5NW85LcNbDriHGJKZCUNcJtbGlTLnER9RpH7h5Nk8fPrvDLyypElLhtz8YcTDdYWtOy0vMuEp5RSltKQhxSmub2Q+gjQnYlqDcAMFHzDM8gwGqvcUpIT96ufFhW0J5ZcEXgkpZsCL7onrbJLxp8IzPhT1K32PSYbIyiVitVJzaHFiXzkVtVixFLZlt8y8NKPDX1Ef9dXzmA7kBijs9VD1B7gTQVacRTKSnu0zI5CmDhmo1F926jKSSUfyfuT8X9IcrGMunzjyGqvIaDtsakqafRCbVwymVtk6w60hSjMjWhRJNJqPZaVluZbGAz1z/OUxD6jZH/f6YUwSWPc+yLW/Ty/6KsazpHT7IJXcVixzMqNxzKRXNvN7nwOJ32Unc9jIyFaAAAAAAAAAAAAAAAAAAAAAAAAAAAAAAAAAAAAAAAAAAAAAAAAAAABO9fvewl/StN9pxRRBO9fvewl/StN9pxQFEAAABE9Ns0tsCxc8Uu9Ls5clwrS1UpyJVE8y4hye+4haFkvZSTQtJkfyi2AAnffk/NVqJ5D/AIw78n5qtRPIf8YogAJ335PzVaieQ/4w78n5qtRPIf8AGKIACd9+T81WonkP+MO/J+arUTyH/GKIACd9+T81WonkP+MO/J+arUTyH/GKIACd9+T81WonkP8AjE5wHFGdWrjUfIItplmDXNbn5vV8+MzGasYfFQ1TbqFNSmn2FIcSXWlxtZe5UXCpKVF6KEz0h/1x1g+vLf2DUgPpZ6KRbe2i2k7UHLFIWzFZvIiFwm2MhOOe7S5ZJjEpCiPxlFUwlZeCslJ2SO0Z0rpYjsSTCtrWPIg2Vnax3kLZUpEicTpOHsps0mSeeUaCMj6yTxcRbke0ABJq7k7U9bWT+az3Jzyawt03rmVIYq2LEpqWDjk7zTMNEJauYNTZm5GWakmXFxGlJp5N9oWVrS49SVOqmZ0CKCeq1U/AKteesJqnFOKfkHLhvFxGtbiuFom0eGZEkiJJJqAAMTU6aP0WaS8rqdQsmYr7B1UqZjvBAXXPylNkhT5qVGOUhR8KVGlt9LfEW/B1q3+Flo/V3NTMp7bLMmmtS8hRkSVypjby4ykrSruRnjbMkRjJJo5si3JK1kSiM9y3oAMNi2kGM4jYwrKsm2bjkCRYvsoedbNBFMNvib2JBeA2lltDZEe5JT4RqPrH8vNL5t1qVT6jo1OyqvKmYXGapIrVYde624aTdJw3Yi5Ph823uaX07cBcPDurfdAAnzujldIVlcOTmGROUmWc647S7xERoMlwyUuTGcSwUhLhrLj2W8tBK3MkkP5N0yyF3BXMdk6lXOSXUacza1ttfx4SVtSWHEOsoWiDHjtm1xI2V4HHwrV4Xi2oQAJdm+ikrUfM6HKcl1BvYtVUxiJ/FobcI4L8knWnec7oVG7qIuJpO/C4gz4EcPN+GS6iAAOjoMaVQW17MjzuOFcykTkRDbMu53zQSXjSriMjSs0pXwkktlGs9z4urrtQaPJ7T2P2mJR6uTPo7huccaxluRWXmVNOsOlzrbTqkrSh5S0lwGSlIJJmklcadaACdJ0Spizt3OFZVkKkLslXDdPxxUwWpq4iojjxcLBPrNTStuFx1SSMiNKU9e/cFprRFp7Xaa91z+jKxmCwy7ziOfUmKttbZqVw8JmZtJ4tkluRntt8GtABiNRdKoGo0mtmPZRe0b9e1KiLcqlRiVKiSUpS/HcN9l00pVwIPja5t0jT4Ky3Pfh0WnM6Jn8XIprMVitx6obp6nmpy33pqSTsT8lBsoS042SnkIJCnCMnlmZp3JJUMAE3rdH51PlGYZejU3J7Z/LYhxnKyybrkwY/ClSWebNiG2+RIJaklxOr3IzNXEexl1rGlmY5nobVaY51kL2GWMeEzXzncQnx7BLzLKCbIiesIGxEskpUoiYSpJ9RLMi3OtAAm+R4jqDMtdP6yJJg3VTj9giwuby3sSYs3ltsOtp4IsaGmO4pZu7qMlsJTsfCg/EXc0FBkiNQ8ky29i1UeJJiw6yrTElOPvOsMqecU6/xNIJpRrfNJNpNwiJslcZmrhTrwAdHR4yqivL2zjzuKJdvtTO5DbP7jIJsm3FkriMuFaUNnwkktlEo9z4urvAAAGLi49llbS5VbsNVkzKL1x19mOc92LEbNLRNR2e6UtLcQRIQk1OE0o+JSzJG2xDaAAiuL49bYlqtpfi99kcq/sqvTm/iyrOUtS3pjqJlISnVqUZqUajIz3MzM/hFqEzuf5ymIfUbI/7/AEwpgAAAAAAAAAAAAAAAAAAAAAAAAAAAAAAAAAAAAAAAAAAAAAAAAAAAJ3r972Ev6VpvtOKKIJ3r972Ev6VpvtOKAogAAAAAAAAAAAAAAAAAAAAn11oNphf3tjkthTWKbG2eTImuRLyfFS+6lpDRLNDLyUcXNttp3IvEkhQQATP2uWlH5NvvOq1/eQ9rlpR+Tb7zqtf3kUwAEz9rlpR+Tb7zqtf3kPa5aUfk2+86rX95FMABM/a5aUfk2+86rX95D2uWlH5NvvOq1/eRTAATP2uWlH5NvvOq1/eQ9rlpR+Tb7zqtf3kUwAEz9rlpR+Tb7zqtf3kPa5aUfk2+86rX95FMABM/a5aUfk2+86rX95D2uWlH5NvvOq1/eRTAATP2uWlH5NvvOq1/eQ9rlpR+Tb7zqtf3kUwAEz9rlpR+Tb7zqtf3kPa5aUfk2+86rX95FMABM/a5aUfk2+86rX95D2uWlH5NvvOq1/eRTAATP2uWlH5NvvOq1/eQ9rlpR+Tb7zqtf3kUwAEz9rlpR+Tb7zqtf3kPa5aUfk2+86rX95FMABM/a5aUfk2+86rX95D2uWlH5NvvOq1/eRTAATP2uWlH5NvvOq1/eQ9rlpR+Tb7zqtf3kUwAGKxLRvT3B772TY7VTUWfcjsBMiXbzJhoYcW2txCSfdWSSUplozMiIz4CG1AAAAAAAAAAAAAAAAAAAAAAAAAAAAAAAAAAAAAAAAAAAAAAAAAAAAATvX73sJf0rTfacUUQTvX73sJf0rTfacUBRAAAAAAAAAAAEVwi85QuoVCrKqvMdO6yG/YWEZiLIxOdIdbbjzHmE8bibJBKUZNbmZISXX4h33Q3KU7R9M/Mqf61AUwBM+huUp2j6Z+ZU/1qHQ3KU7R9M/Mqf61AUwBM+huUp2j6Z+ZU/wBah0NylO0fTPzKn+tQFMATPoblKdo+mfmVP9ah0NylO0fTPzKn+tQFMATPoblKdo+mfmVP9ah0NylO0fTPzKn+tQFMATPoblKdo+mfmVP9ah0NylO0fTPzKn+tQFMATPoblKdo+mfmVP8AWodDcpTtH0z8yp/rUBTAEz6G5SnaPpn5lT/WodDcpTtH0z8yp/rUBTAEz6G5SnaPpn5lT/WodDcpTtH0z8yp/rUBTAEz6G5SnaPpn5lT/WodDcpTtH0z8yp/rUBTAEz6G5SnaPpn5lT/AFqHQ3KU7R9M/Mqf61AUwBM+huUp2j6Z+ZU/1qHQ3KU7R9M/Mqf61AUwBM+huUp2j6Z+ZU/1qHQ3KU7R9M/Mqf61AUwBM+huUp2j6Z+ZU/1qHQ3KU7R9M/Mqf61AUwBM+huUp2j6Z+ZU/wBah0NylO0fTPzKn+tQFMATPoblKdo+mfmVP9ah0NylO0fTPzKn+tQFMATPoblKdo+mfmVP9ah0NylO0fTPzKn+tQFMATPoblKdo+mfmVP9ah0NylO0fTPzKn+tQFMATPoblKdo+mfmVP8AWodDcpTtH0z8yp/rUBTAEz6G5SnaPpn5lT/WodDcpTtH0z8yp/rUBTAEVze85QuntCnKrTMdO7OGxYV8Z+LHxOdHdcbkTGWFcDirJZJURO7kZoUXV4hagAAAAAAAAAAAAAAAAAAAAABlc31DqMK7kr+5ZVvf2pqTVUdeSVzJyk7cSkkpSUttJ3TxvOKS2jiTxKI1JI84nTvL8/IpmruRLYgudacVoJTrEFBfgypSeB+afwGX3JkyM0qZXtxGHa3utGntJav46zbv3d5GVwP1NDCetJjCvgJ5uMlZsEf4TvAn4zIcH2cauXHXjWifcLfjJeVZFHg8RfGlMJE1X6Fkg/jIhtqLH6HF6tmkxmkgVFdGLhZhwYyI7DRfElCCJKf0EOwATruflDTfCO307pd/6HR06z4f97n42/8AwIf3oflCteF3xNO5P9T2GTmd/wDe6UX/APQUQAE6Oz5QVd/LYdgd42nrUuNfy690y/qtLivJM/ndSXyj8nrKql/1/wBNMyxhBeOWcBNpE+VRu163zaQX4TyWiIvHsKOADqsayrGcyqkXmI5DW3Vc4o0Jl18pEho1F408SDMty+EvGQ7UYrJ9IcNyOzXkkViTj2SKIiK+o3e4557e5J1SSNElBfA2+lxv+qOlPOcu0xcTG1d7ln49uSG8yhM8wzH36iKxj7n3N8shBmwZ7mso5cJGFPAflC0OoS42tK0LIlJUk9yMj8RkY/QAJ3r972Ev6VpvtOKKIJ3r972Ev6VpvtOKAogAAAAAAAAAJnycvenh/S959qyxTBM+Tl708P6XvPtWWKYAAAAAAAAAAAAAAAAAAAAAAA69nIKGTeSsZj3de7cQY7UuVXokoVJYYdNaW3VtEfElCzbcJKjIiM0KIt9jAdgA48+wgVUN2xtJ0eHEjp43X5DqW220/GpSjIiL5THIAAHB6cpemfY50xC6W7m7s7g7oR3R3PxcPO83vxcHF4PFttv1b7jnAADp8gzHEcSXXN5VlNRTLuJaa+uTYTmo5zJSiM0sMktRc44ZEZkhO6j2PqHcAAAAAADjrsa9ue1VuTo6Jshpb7UZTqSdcbQaSWtKN9zSk1oIzItiNSd/GQDkAOPAsIFrDasaudHmRJCeNp+O6lxtxPxpUkzIy+UhyAAAAAAAAAAAAAAAAAAAAAEz5RvvTzPpej+1YgpgmfKN96eZ9L0f2rEFMAAAAAAAAAAAAAAAAAAGX1DzX2EUTcqHXKs7mzkoraSsSvgOdPcSo22zVsfAgkoW44vY+Bptxex8Ox6gTekQWYa15DeSS44eBRmcfr0K8SJ8plqXMd2+E+53K9CVeNJG+RHstRAO10708LEUS76/sE3WX3ZIXc3Km+E3TTuaWGEmZ8zFb4jJtoj6tzUo1OLWtWzAAAAAAAfN+QxGb52S820jiSniWokluoyIi3P4TMyIvlMh9AAAAAH4daafaWy82lxtxJpWhRbpUk+oyMj8ZD9gAk9XGXodkkHHmlrPTvIZSIVWhRmZY9Yuq2aiJP4Ib6j4Wk/7F00tJ8B1tLVYHUZdi1Tm2L2mI3ja1wbaK5EeNtXC4glFsS0K8aFpPZSVF1pUkjLrIh0mkWUWeVaeVVjkTrarqKciqt1ISSULsIT7kSUpBfAg32HTSXxGQDZDK6n4fPzzCpuM1drHrZj70SQxKkRlSGm3GJLb6eNtK0GpJm1sZEtJ9fjGqABO+ieUL2gad+Z871mHRPKF7QNO/M+d6zFEABO+ieUL2gad+Z871mHRPKF7QNO/M+d6zFEABO+ieUL2gad+Z871mPKuoen3L6n8rZq90ezKtq6VFPCbyKzmQZEbHpSyWsyQ3DekyFPOk0ZJNbPNkRnsZoUZrV7uABL+TSUlOj9cmY42uQVndE6ppBoQpfSkriNKTMzIt99iMz2+MxUBM+Tl708P6XvPtWWKYAAAAAAAAAAAAAAAAAAJByktPJ+p1JimLwqXHrJteRtPSUZFjqryrbaTFkeHJiE61xp4uEiM3EkSzQe57ER18AEHp9ErCNd1+CSsxzOJRUWOx3Yj9HZSamGmwOa+vZttlfBzbaDShEZanGya4EuJcJKTHIi5CUTWzPKGpY1HUdhQsqacl1d65UJsWkv853JIebOEyZtnH6mFpStXi4l8QuAAPKlxpRlVxpfk2NXE3Um0Oywupunu6MgtSkOXRE/3S00bbqTQZpS3xRGuFvi4fuZGfX3eQaVU+qS9OmsVoI0+gqmLOVx6qYja3zzSuejbEaLR9mUxIPZfNuuqVslKuFCk+L0gACNryKLU8o86eLG1BU3Z4+qNIV0TeP0KJiFtrZNt021V8dXNE6RrQpG57JWZr4SGBi1GouKYJMsXU6hXMy/wc5NuiZZXEh2PYE803vHajuE9HdQy46rmYfNPO80W27h8Y9RAA8oVl1lOL6A9HZrHzzIn1ZfDVVus4fkMuY7XtyYsnnFx31TZ7KCQTp/6U6pe5GjwVbNJ22fv6kW+olLqBiun7M6gxZUM+6pkmXDtEtSC3m9zQDhqORuw62SiU60pK2VFwqUnhF5AB5+cwTMk4BnOcs5NqInLXGsmiwIZW8xTZsnJkdx8xDUZtpWlJNqadbQThkaS4lI4Ul+tWcIssN0wfrMcvs/m9P28VcyY5Y5DcSaozSZreaarZLVgbSnEoSphl9tpHOcWyG0qSd/AB51xxGp8fGcEp8gt8hRb5bUKx+zW45IZciOx3jcOUSFurWy4cUpKed5xSzVzHE4s9lHS8SUz3183ZsTM7NDNb3Fzi91dFmyfDwEfXw90lK4vjVtv/RGuTjmPIv3MrRQ1ybt2KmC5ZFFQUpcYlGomTd24zbJRmZJ323PfYclddXuT2rRyDHXNjtLYakqaSbrbazSa0JXtuSVGhBmRHsZpTv4iATCEcaJQ6syY0y0aoUzJrjC6ZxKJTThQkHMVEWZ8JOc/zpl1kROkvfr3G+wyyiXGH0VvXuznYs2tjSGFz/8AlKm1tJUk3f8A9QyMuL5dx9JWKYtNovYtNxqqkUvClPRzsNtcXhSolJLmjLg2JREZdXUZEY7QiIi2ItiIB/QAAAAAAAAAAAAAAAAAAAS3lNJmr0bs0VzzLUtVlSkw4+2bjaHOlIvCakEpJqSR7bkSkmZdW5eMc7onlC9oGnfmfO9Zjj8o33p5n0vR/asQUwBO+ieUL2gad+Z871mHRPKF7QNO/M+d6zFEABO+ieUL2gad+Z871mHRPKF7QNO/M+d6zFEABO+ieUL2gad+Z871mHRPKF7QNO/M+d6zFEABO+ieUL2gad+Z871mHRPKF7QNO/M+d6zFEABO+ieUL2gad+Z871mHRPKF7QNO/M+d6zFEAB4Z5R+nfLtvtecHstDsxroNhFq3E3N1Ggv11EmKbx80zJZflSUynCUbquFDXGlK0n1kZcPo/k+M5BFr8yhZjOhTMkj5Q6i4kQmFMsOyThRFEtttSlKQg21NGkjUZkky6xVxNoznsJ1smQ3yNur1HjNyoq/6JXUJnm3mz/ruwm2FIL8GA+Z/AQCkgAAAAADynd6b6v3OaZydhjGc2WPSLSBZQDXkzkJ17uexYe5uGlF45HJHNpd23i158KUErnFGZj8W9Fq/S9JzZlbqLDVInRY1tJdzRLjF447axyZKpQmWro8ijm82ouahkfOoI+PbnEerwAYjR2ryCnwlmJkMO7hKOS+5Dg3lr0nYw4ilmbTMmVzr3POJLxq553YjIuNe3Ee3AAAAAAHkWXS6gWl7kU3DkyjqlZFcIbNrfh5xM99L3i+HnUub/LuPTeeZhCwLEbPLJsZ2UUFouYiM/wArMkrUTbEZv43HXVttIL4VLSOJpbiczCcBqMftZDci1Q0uXavt+4fsZDin5bqd/gXIddUXyKAaoAAAAAAAAAAAABM+Tl708P6XvPtWWKYI5i2nOu+D1KsdxnUfAujETZsuOmfiMx99BSJLj5pW4ixbSsyN0y3JCdyIuodv0NylO0fTPzKn+tQFMATPoblKdo+mfmVP9ah0NylO0fTPzKn+tQFMATPoblKdo+mfmVP9ah0NylO0fTPzKn+tQFMATPoblKdo+mfmVP8AWodDcpTtH0z8yp/rUBTAEz6G5SnaPpn5lT/WodDcpTtH0z8yp/rUBTAEz6G5SnaPpn5lT/WodDcpTtH0z8yp/rUBTAEz6G5SnaPpn5lT/WodDcpTtH0z8yp/rUBTAEz6G5SnaPpn5lT/AFqHQ3KU7R9M/Mqf61AUwBM+huUp2j6Z+ZU/1qHQ3KU7R9M/Mqf61AUwBM+huUp2j6Z+ZU/1qHQ3KU7R9M/Mqf61AUwBM+huUp2j6Z+ZU/1qHQ3KU7R9M/Mqf61AUwBM+huUp2j6Z+ZU/wBah0NylO0fTPzKn+tQFMATPoblKdo+mfmVP9ah0NylO0fTPzKn+tQFMATPoblKdo+mfmVP9ah0NylO0fTPzKn+tQFMATPoblKdo+mfmVP9ah0NylO0fTPzKn+tQFMATPoblKdo+mfmVP8AWodDcpTtH0z8yp/rUBTAEz6G5SnaPpn5lT/WodDcpTtH0z8yp/rUBTAEz6G5SnaPpn5lT/WodDcpTtH0z8yp/rUBTAEz6G5SnaPpn5lT/WodDcpTtH0z8yp/rUBTAEz6G5SnaPpn5lT/AFqHQ3KU7R9M/Mqf61AOUb708z6Xo/tWIKYI5lOnOu+cVKcdybUfAujFzYUuQmBiMxh9ZR5Lb5JQ4uxcSgzNoi3NCtiM+oWMAAAAAAAAAAAAAAAAAAZ7O8Lr89xt+gmyX4bvGiTBnxjIpECW2olsyWjMjIloWRHsZGlRbpURpUoj0IAMJgeoEydPVgGfNR6zNoDJuOsNkaY9qwkyLu6EajM1tGZlxt7mtlSuBe5GhxzdjoMywbHM8rW67IIalKjOlJhTGHFMy4EgiMkvx3kbLacIjMuJJluRqSe6VGR5FN3qppyfMZTUyM9oW/cXNQwhNswj45UFPCh/YvG5F8JR+KOXjAU0BnMQ1FwfPEPexLJoVg/F2KXESvglxFfgvx17OsK/quJSfyDRgAAAAAD8OutMNLeecS222k1LWo9kpSXWZmZ+IgH7HDt7eqoKuVd3tlFr6+C0p+VLlOpaZZbSW6lrWoyJKSLxmZjCStbaK1fcrNLauXn1ihRtqXTqT0awsuo+fsFbR0cJ+6QhTjpdezaj6h/a3TW6yayi5LrFaQ7iTDdTJgUEJBlT1zqT3Q5wrLjlvpPYyeeIkpMiU200rczDi4/EstV8pgahXcGTBxSkUb2MVktpTT02QaTT0pIaURKbIkKUmO0oiUklqdWRLUhLVQAAAAAAAAAAAAAAAAAAAAAAAAAAAAAAAAAAAAAAAAAAAAAAAAAAAAAAAAAAAAAAAAAAAAAAAAAAAAAAAAAAAAAAAAAAAAAAAAAAAAAAAAAAAAAZvLdN8CztTDuXYlWWciKRlFlvMF3VF+Vl8tnGj8fWhST6zGQutMrHFKmXZYfq1n1U1FaU6UR6yZtm3DL4FOWTMl4i/suEAAPFGpX/ANonr1pnfLoINZiNu22oy5+yr3udPY/h5h5pP/yjJ/8A3q/KG4kl7DdO+v8A/bp372AAPU/J81T1U5RMY5N3qHYYvs3zht49BgpSfyby2JCiL5jI/lFra0F07lOok5bFs8yfSol/+89m/ZsEsvEtEV5RxmleLrbaT4i+IAAUFhhmMy3GjMoaaaSSG20JJKUJItiIiLqIiL4B+wAAAAAf/9k=;" parent="1" vertex="1">
          <mxGeometry x="460" y="330" width="626.84" height="944" as="geometry" />
        </mxCell>
      </root>
    </mxGraphModel>
  </diagram>
</mxfile>
